<svg xmlns="http://www.w3.org/2000/svg" width="82" height="82" viewBox="0 0 40.249 40.249" style="enable-background:new 0 0 40.249 40.249" xml:space="preserve"><path d="M26.875 27.999h-4.25v-4.646c5.315-1.15 9.312-5.887 9.312-11.542C31.937 5.298 26.638 0 20.125 0S8.312 5.299 8.312 11.812c0 5.655 3.996 10.391 9.312 11.542V28h-4.25c-1.381 0-2.5 1.119-2.5 2.5s1.119 2.5 2.5 2.5h4.25v4.75c0 1.381 1.119 2.5 2.5 2.5s2.5-1.119 2.5-2.5V33h4.25c1.381 0 2.5-1.119 2.5-2.5s-1.118-2.501-2.499-2.501zM13.312 11.812C13.312 8.056 16.37 5 20.125 5s6.813 3.057 6.813 6.812c0 3.758-3.058 6.813-6.813 6.813s-6.813-3.058-6.813-6.813z"/></svg>