<svg width="120" height="120" viewBox="0 0 24 24" fill="none" xmlns="http://www.w3.org/2000/svg"><path fill-rule="evenodd" clip-rule="evenodd" d="m12.1888 7 .0021-2 7 .00746-.0075 7.00004-2-.0022.0039-3.58852-3.0443 3.04432c1.3182 1.9452 1.1157 4.6132-.6075 6.3364-1.9526 1.9526-5.11841 1.9526-7.07103 0-1.95263-1.9526-1.95263-5.1184 0-7.0711 1.69769-1.69767 4.31253-1.91931 6.24963-.6649l3.0577-3.05768L12.1888 7Zm-4.31012 5.1406c1.17157-1.1715 3.07102-1.1715 4.24262 0 1.1716 1.1716 1.1716 3.0711 0 4.2427-1.1716 1.1716-3.07105 1.1716-4.24262 0-1.17157-1.1716-1.17157-3.0711 0-4.2427Z" fill="#000"/></svg>