<svg xmlns="http://www.w3.org/2000/svg" viewBox="0 0 26.5 17.4" style="enable-background:new 0 0 26.5 17.4" fill="#c4bbbb63" xml:space="preserve"><path d="m25.9 13.4-.5 1.7a3 3 0 0 1-1.2 1.7l-.7.3v-1.4a27 27 0 0 0-.3-4 9.2 9.2 0 0 0-1.1-3.3c-.3-.5-.6-.9-1.2-1.3a5 5 0 0 1 1 3.3l-1.4-2.5h-.1c.2.9.4 1.8-.1 2.7A9.2 9.2 0 0 0 19 7c-.6.9-1.2 1.7-2.1 2.4.1-.9-.1-1.7-.4-2.5-.7 1.7-1.3 3.4-2.5 4.7h-.1l.3-1.8c-.6.8-1.1 1.8-2 2.3l-.4.1.1-.8-.1-.3-.2.1c-.7.4-1.4.8-2.2 1h-.5c.8-.8 1.3-1.8 1.9-2.8-1.4.9-2.7 2.1-4.4 2.5.6-.4 1.1-.8 1.5-1.5l-.3.1-2.6 1c-.4.1-.8.2-1.2-.1a.6.6 0 0 0-.6 0c-.2.3-.5.6-.5 1-.2 1-.3 3.3-.1 4.6l-.2-.1c-.6-.4-1-.9-1.2-1.6-.1-.3-.1-.5.2-.8a3 3 0 0 1-.7-1.4v-.7c0-.4.3-.6.7-.6l-.5-1c-.5-.8-.4-1.5.4-2.2l.5-.4a3 3 0 0 0-.8-.4c.2-.5.7-.8 1.1-1.1.6-.3 1-.8 1.4-1.4l1.3-1.6a2 2 0 0 1 1-.6l.1-.1c1-1 2.3-1.5 3.6-2 .6-.2 1.2-.6 1.9-.6l3-.1c1.2 0 2.3.2 3.5.3 1 .1 1.9.5 2.7 1.1l2 1.6.6.8.1.1c1 .9 1.7 1.9 2.2 3.1.3.6.2 1.3.1 2l-.2 1.5.3 1.2.3.7-.1.7z"/></svg>