<svg class="svg" xmlns="http://www.w3.org/2000/svg" viewBox="0 0 7.2 9.6" style="enable-background:new 0 0 7.2 9.6" fill="#c4bbbb63" xml:space="preserve"><path d="M2.5 9.1v-.5a1 1 0 0 0-.5-.9c-.3-.1-.6-.4-.8-.7 0 .5 0 1 .2 1.4C.8 7.6.7 6.7 1 5.8c-.3.2-.4.5-.8.3L.3 6c.7-.4.9-1.1.9-1.8L1 2.7v-.9c.1-.5.3-.7.8-.7l.1-.1A3 3 0 0 1 3.5.2H4l.9.3c.4.2.6.5.8.8.2.9.3 1.6.2 2.4l-.1.7c0 .6.1 1.2.5 1.6.4.6.4 1.3.3 2-.1.5-.2 1 .1 1.4h-.1l-.1-.2c-.3-.4-.3-.9-.2-1.4.1-.4.1-.6-.1-.9-.1.4 0 .9-.4 1.3l-.1-.5c-.4.3-.5.4 0 1.1l-.8-.5-.1.7h-.1l-.1-.3.1-.9-.1-.7h-.1c-.2 0-.3-.1-.4-.3-.2-.6-.1-1.1.4-1.6l.5-.6c-.1-.2-.3-.3-.6-.3s-.5-.1-.8-.3c-.5-.3-.8-.8-1-1.3-.1.7 0 1.3.2 2L2.2 4h-.1l-.1.7c0 .2 0 .4.2.6l.6.5c.3.2.4.4.2.7.1.1 0 .3-.1.4-.1.1-.1.2 0 .4.2.7 0 1.2-.4 1.8.1 0 0 0 0 0z"/></svg>