<?xml version="1.0" encoding="utf-8"?>
<!-- Generator: Adobe Illustrator 26.0.1, SVG Export Plug-In . SVG Version: 6.00 Build 0)  -->
<svg version="1.1" id="Camada_1" xmlns="http://www.w3.org/2000/svg" xmlns:xlink="http://www.w3.org/1999/xlink" x="0px" y="0px"
	 viewBox="0 0 1000 200" style="enable-background:new 0 0 1000 200;" xml:space="preserve">
<style type="text/css">
	.st0{fill:#FFDE00;stroke:#FFDE00;stroke-width:4.8975;stroke-miterlimit:10;}
	.st1{fill:none;}
	.st2{enable-background:new    ;}
	.st3{fill:#17BB00;stroke:#17BB00;stroke-width:5;stroke-miterlimit:10;}
	.st4{fill:#665A66;stroke:#665A66;stroke-width:5;stroke-miterlimit:10;}
</style>
<rect x="8.5" y="145.3" class="st0" width="467" height="6"/>
<rect x="156.4" y="-37.2" class="st1" width="1167.2" height="280.3"/>
<g>
	<g class="st2">
	</g>
</g>
<g>
	<g class="st2">
		<path class="st3" d="M563.8,149.8c-6.8,0-13-1.1-18.7-3.2c-5.7-2.2-10.6-5.2-14.8-9.2c-4.2-4-7.4-8.7-9.7-14.1
			c-2.3-5.4-3.5-11.3-3.5-17.7c0-6.4,1.2-12.4,3.5-17.7c2.3-5.4,5.6-10.1,9.8-14.1c4.2-4,9.2-7.1,14.9-9.2c5.7-2.2,12-3.2,18.8-3.2
			c7.6,0,14.4,1.3,20.5,3.8c6.1,2.5,11.2,6.2,15.3,11l-12.6,11.7c-3.2-3.3-6.6-5.8-10.3-7.4c-3.7-1.6-7.7-2.4-12.1-2.4
			c-4.1,0-7.8,0.7-11.3,2c-3.4,1.3-6.4,3.2-8.9,5.7c-2.5,2.4-4.4,5.3-5.7,8.7c-1.3,3.3-2,7.1-2,11.1c0,3.9,0.7,7.6,2,10.9
			c1.3,3.4,3.3,6.3,5.7,8.7c2.5,2.4,5.4,4.4,8.8,5.7c3.4,1.4,7.1,2.1,11.2,2.1c3.9,0,7.7-0.7,11.4-2c3.7-1.3,7.3-3.5,10.8-6.5
			l11.3,14.3c-4.7,3.6-10.1,6.3-16.3,8.1C576.1,148.8,569.9,149.8,563.8,149.8z M580.3,136.3v-32.2h18.1v34.7L580.3,136.3z"/>
		<path class="st3" d="M616.8,148.3V62.7h37.1c7.7,0,14.3,1.2,19.8,3.7c5.5,2.5,9.8,6.1,12.8,10.7c3,4.6,4.5,10.2,4.5,16.5
			c0,6.4-1.5,12-4.5,16.6c-3,4.6-7.3,8.1-12.8,10.5c-5.5,2.4-12.1,3.6-19.8,3.6h-26.2l9-8.6v32.5H616.8z M636.7,118l-9-9.4h25.1
			c6,0,10.6-1.3,13.7-3.9c3.1-2.6,4.6-6.3,4.6-11c0-4.7-1.5-8.4-4.6-10.9c-3.1-2.6-7.7-3.9-13.7-3.9h-25.1l9-9.4V118z M671.3,148.3
			l-21.5-31.1h21.3l21.5,31.1H671.3z"/>
		<path class="st3" d="M695.4,148.3l38-85.6H753l38.4,85.6h-20.8l-31.4-75.6h7.9l-31.4,75.6H695.4z M714.6,129.9l5-15h44.3l5.1,15
			H714.6z M732.2,55.7l16.5-17.6h20.4l-22,17.6H732.2z"/>
		<path class="st3" d="M818.1,148.3V78.8h-27.4V62.7h74.6v16.1h-27.4v69.5H818.1z"/>
		<path class="st3" d="M875.9,148.3V62.7h19.9v85.6H875.9z"/>
		<path class="st3" d="M944.3,149.8c-6.8,0-13.4-0.9-19.8-2.8c-6.3-1.8-11.4-4.2-15.2-7.2l6.7-14.9c3.6,2.6,7.9,4.8,13,6.4
			c5.1,1.7,10.1,2.5,15.3,2.5c3.9,0,7.1-0.4,9.5-1.2c2.4-0.8,4.2-1.9,5.3-3.2c1.1-1.3,1.7-2.9,1.7-4.7c0-2.3-0.9-4.1-2.7-5.4
			c-1.8-1.3-4.2-2.4-7.2-3.3c-3-0.9-6.2-1.7-9.7-2.4c-3.5-0.8-7-1.7-10.6-2.8c-3.5-1.1-6.8-2.6-9.8-4.4c-3-1.8-5.3-4.2-7.1-7.2
			c-1.8-3-2.6-6.7-2.6-11.2c0-4.9,1.3-9.4,3.9-13.4c2.6-4,6.6-7.3,11.9-9.7c5.3-2.4,12-3.6,20.1-3.6c5.4,0,10.7,0.7,16,2
			c5.3,1.3,9.8,3.2,13.8,5.6l-6.2,14.9c-3.8-2.2-7.8-3.9-11.9-5c-4.1-1.1-8-1.7-11.7-1.7c-3.9,0-7.1,0.4-9.4,1.3
			c-2.4,0.9-4.1,2-5.2,3.5c-1.1,1.5-1.7,3.1-1.7,4.9c0,2.3,0.9,4.1,2.7,5.5c1.8,1.4,4.2,2.5,7.1,3.2c2.9,0.8,6.2,1.5,9.8,2.3
			c3.6,0.8,7.1,1.7,10.6,2.9c3.5,1.1,6.7,2.6,9.7,4.3c2.9,1.8,5.3,4.1,7.2,7.1c1.8,3,2.8,6.7,2.8,11.1c0,4.8-1.3,9.2-4,13.2
			c-2.6,4-6.7,7.2-12,9.7C959.1,148.5,952.3,149.8,944.3,149.8z"/>
	</g>
</g>
<rect x="-332.7" y="-47.1" class="st1" width="1167.2" height="280.3"/>
<g class="st2">
	<path class="st4" d="M21,134.3l27.7-60.5h6.3l27.7,60.5h-6.7L50.4,77.5H53l-25.4,56.8H21z M31.9,118.1l1.9-5.2h35.2l1.9,5.2H31.9z"
		/>
	<path class="st4" d="M92.6,134.3V73.8h5.3l27.7,47.2h-2.8l27.4-47.2h5.3v60.5h-6.1V83.3h1.5l-25.2,43.2h-3L97.1,83.3h1.6v50.9H92.6
		z"/>
	<path class="st4" d="M201.7,134.8c-4.6,0-8.8-0.8-12.7-2.3c-3.9-1.5-7.3-3.7-10.1-6.5c-2.9-2.8-5.1-6.1-6.7-9.8
		c-1.6-3.7-2.4-7.8-2.4-12.2c0-4.4,0.8-8.5,2.4-12.2c1.6-3.7,3.8-7,6.7-9.8c2.9-2.8,6.2-5,10.1-6.5c3.9-1.5,8.1-2.3,12.7-2.3
		c4.6,0,8.8,0.8,12.6,2.3c3.9,1.5,7.2,3.7,10.1,6.4c2.9,2.8,5.1,6,6.7,9.8c1.6,3.7,2.4,7.8,2.4,12.3c0,4.4-0.8,8.5-2.4,12.3
		c-1.6,3.7-3.8,7-6.7,9.8c-2.9,2.8-6.2,4.9-10.1,6.4C210.4,134,206.2,134.8,201.7,134.8z M201.7,129.1c3.6,0,7-0.6,10.1-1.9
		c3.1-1.2,5.8-3,8-5.3c2.3-2.3,4-4.9,5.3-8c1.3-3,1.9-6.4,1.9-10s-0.6-7-1.9-10c-1.3-3-3-5.7-5.3-8c-2.3-2.3-5-4-8-5.3
		c-3.1-1.2-6.4-1.9-10.1-1.9s-7,0.6-10.1,1.9c-3.1,1.2-5.8,3-8.1,5.3c-2.3,2.3-4.1,4.9-5.4,8c-1.3,3-1.9,6.4-1.9,10
		c0,3.6,0.6,6.9,1.9,9.9c1.3,3.1,3.1,5.7,5.4,8c2.3,2.3,5,4,8.1,5.3C194.7,128.5,198,129.1,201.7,129.1z"/>
	<path class="st4" d="M264.4,134.8c-4.5,0-8.8-0.7-12.9-2.2c-4.1-1.5-7.3-3.4-9.6-5.7l2.5-4.9c2.1,2.1,5,3.8,8.6,5.2
		c3.6,1.4,7.4,2.1,11.4,2.1c3.8,0,6.9-0.5,9.3-1.4c2.4-1,4.2-2.2,5.3-3.8c1.1-1.6,1.7-3.4,1.7-5.4c0-2.4-0.7-4.3-2-5.7
		c-1.4-1.4-3.1-2.6-5.3-3.4c-2.2-0.8-4.6-1.6-7.3-2.2c-2.7-0.6-5.3-1.3-8-2c-2.7-0.7-5.1-1.7-7.3-2.9c-2.2-1.2-4-2.8-5.4-4.8
		c-1.4-2-2-4.6-2-7.8c0-3,0.8-5.8,2.4-8.3c1.6-2.5,4-4.5,7.3-6.1c3.3-1.5,7.5-2.3,12.6-2.3c3.4,0,6.8,0.5,10.1,1.4
		c3.3,1,6.2,2.3,8.6,3.9l-2.2,5.1c-2.6-1.7-5.3-3-8.3-3.8c-2.9-0.8-5.7-1.2-8.4-1.2c-3.6,0-6.6,0.5-9,1.5c-2.4,1-4.1,2.3-5.2,3.9
		s-1.7,3.5-1.7,5.6c0,2.4,0.7,4.3,2,5.7c1.4,1.4,3.1,2.6,5.4,3.4c2.2,0.8,4.7,1.5,7.3,2.2c2.7,0.6,5.3,1.3,7.9,2.1
		c2.6,0.8,5,1.7,7.3,2.9c2.2,1.2,4,2.8,5.4,4.7c1.4,2,2,4.5,2,7.7c0,2.9-0.8,5.7-2.4,8.2c-1.6,2.5-4.1,4.5-7.4,6.1
		C273.9,134,269.6,134.8,264.4,134.8z"/>
	<path class="st4" d="M311.8,134.3v-55h-21.3v-5.5h48.9v5.5h-21.3v55H311.8z"/>
	<path class="st4" d="M349.7,134.3V73.8h22.7c5.1,0,9.5,0.8,13.2,2.5c3.7,1.6,6.5,4,8.5,7.1c2,3.1,3,6.8,3,11.2c0,4.3-1,7.9-3,11
		c-2,3.1-4.8,5.4-8.5,7.1c-3.7,1.6-8.1,2.5-13.2,2.5h-19.1l2.9-2.9v22.1H349.7z M356.1,112.7l-2.9-3h18.9c6.1,0,10.6-1.3,13.8-4
		c3.1-2.7,4.7-6.4,4.7-11.2c0-4.8-1.6-8.6-4.7-11.2c-3.1-2.7-7.7-4-13.8-4h-18.9l2.9-3V112.7z M391,134.3l-15.6-22h6.9l15.7,22H391z
		"/>
	<path class="st4" d="M402.5,134.3l27.7-60.5h6.3l27.7,60.5h-6.7L432,77.5h2.6l-25.4,56.8H402.5z M413.4,118.1l1.9-5.2h35.2l1.9,5.2
		H413.4z"/>
</g>
<g>
	<g class="st2">
	</g>
</g>
</svg>
