<svg id="CAMADA_3" data-name="CAMADA 3" xmlns="http://www.w3.org/2000/svg" viewBox="0 0 973.47 84.54"><defs><style>.cls-1{fill:#b3b3b3;stroke:#1287ff;}.cls-1,.cls-2,.cls-3{stroke-miterlimit:10;}.cls-1,.cls-2{stroke-width:8px;}.cls-2,.cls-3,.cls-9{fill:#fff;}.cls-2{stroke:#b3b3b3;}.cls-3{stroke:gray;stroke-width:6px;}.cls-4,.cls-7{font-size:14px;fill:#595257;font-family:Montserrat-Medium, Montserrat;font-weight:500;}.cls-4{letter-spacing:0.07em;}.cls-5,.cls-7{letter-spacing:0.08em;}.cls-6{letter-spacing:0.04em;}.cls-8{fill:#4caf50;}</style></defs><line class="cls-1" x1="196.98" y1="27.27" y2="27.27"/><line class="cls-1" x1="487.98" y1="27.27" x2="196.98" y2="27.27"/><line class="cls-1" x1="793.88" y1="27.27" x2="487.98" y2="27.27"/><line class="cls-2" x1="973.47" y1="27.27" x2="793.88" y2="27.27"/><circle class="cls-3" cx="487.98" cy="27.07" r="23.87"/><circle class="cls-3" cx="790.98" cy="27.07" r="23.87"/><text class="cls-4" transform="translate(145.99 73.76)">P<tspan class="cls-5" x="11.09" y="0">ERGUN</tspan><tspan class="cls-6" x="69.5" y="0">T</tspan><tspan class="cls-5" x="78.34" y="0">A 1</tspan></text><text class="cls-4" transform="translate(438.56 73.76)">P<tspan class="cls-5" x="11.09" y="0">ERGUN</tspan><tspan class="cls-6" x="69.5" y="0">T</tspan><tspan class="cls-5" x="78.34" y="0">A 2</tspan></text><text class="cls-7" transform="translate(770.06 73.76)">FINAL</text><circle class="cls-8" cx="196.84" cy="27.25" r="27.25"/><path class="cls-9" d="M227.49,24.17,211,40.52l-11-10.9-5.5,5.45,11,11.29L211,51.82l22-22.2Z" transform="translate(-16.89 -10.93)"/><circle class="cls-8" cx="487.84" cy="27.25" r="27.25"/><path class="cls-9" d="M518.49,24.17,502,40.52l-11-10.9-5.5,5.45,11,11.29L502,51.82l22-22.2Z" transform="translate(-16.89 -10.93)"/></svg>