<svg id="Layer_1" data-name="Layer 1" xmlns="http://www.w3.org/2000/svg" viewBox="0 0 28.53 30" style=""><defs><style>.cls-1,.cls-3{fill:none;stroke-linecap:round;stroke-linejoin:round;stroke-width:2px;}.cls-1{stroke:#4e5aea;}.cls-2{fill:#959cf2;}.cls-3{stroke:#959cf2;}</style></defs><path class="cls-1 tMCwdxKU_0" width="26.53" height="17.68" d="M 5,11.32 L 23.53,11.32 A 4,4,0,0,1,27.53,15.32 L 27.53,25 A 4,4,0,0,1,23.53,29 L 5,29 A 4,4,0,0,1,1,25 L 1,15.32 A 4,4,0,0,1,5,11.32"></path><path class="cls-1 tMCwdxKU_1" d="M16,2h0a7.75,7.75,0,0,1,7.74,7.74v2.58H8.26V9.74A7.75,7.75,0,0,1,16,2Z" transform="translate(-1.74 -1)"></path><path class="cls-2 tMCwdxKU_2" d="M11.309999999999999,17.95A2.95,2.95 0,1,1 17.21,17.95A2.95,2.95 0,1,1 11.309999999999999,17.95"></path><path class="cls-3 tMCwdxKU_3" d="M14.26,22.37L14.26,16.47"></path><style data-made-with="vivus-instant">.tMCwdxKU_0{stroke-dasharray:82 84;stroke-dashoffset:83;animation:tMCwdxKU_draw 2000ms linear 0ms forwards;}.tMCwdxKU_1{stroke-dasharray:45 47;stroke-dashoffset:46;animation:tMCwdxKU_draw 2000ms linear 333ms forwards;}.tMCwdxKU_2{stroke-dasharray:19 21;stroke-dashoffset:20;animation:tMCwdxKU_draw 2000ms linear 666ms forwards;}.tMCwdxKU_3{stroke-dasharray:6 8;stroke-dashoffset:7;animation:tMCwdxKU_draw 2000ms linear 1000ms forwards;}@keyframes tMCwdxKU_draw{100%{stroke-dashoffset:0;}}@keyframes tMCwdxKU_fade{0%{stroke-opacity:1;}94.44444444444444%{stroke-opacity:1;}100%{stroke-opacity:0;}}</style></svg>