<svg id="Camada_1" data-name="Camada 1" xmlns="http://www.w3.org/2000/svg" xmlns:xlink="http://www.w3.org/1999/xlink" viewBox="0 0 974.47 1972.35"><defs><style>.cls-1{fill:none;}.cls-2{fill:#1ee464;}.cls-3{fill:#fff;}.cls-4{clip-path:url(#clip-path);}.cls-5{fill:#63605f;}.cls-6{fill:#ffc19f;}.cls-7{fill:#fffad7;}.cls-8{fill:#4292ba;}.cls-9{fill:#0e547f;}.cls-10{fill:#d3dae5;}.cls-11{fill:#5b2821;}.cls-12{opacity:0.21;}.cls-13{fill:#ffebeb;}.cls-14{fill:#666;}.cls-15{opacity:0.2;}.cls-16{fill:#7c4640;}.cls-17{fill:#1e9e8f;}.cls-18{fill:#f9e7d7;}.cls-19{fill:#40c4b7;}.cls-20{fill:#f4b18c;}.cls-21{fill:#383d47;}.cls-22{fill:url(#linear-gradient);}.cls-23{fill:url(#linear-gradient-2);}.cls-24{fill:#e0956c;}</style><clipPath id="clip-path" transform="translate(83.36 -43.5)"><path class="cls-1" d="M191.17,258.2c-47.56,69-75.74,154.61-75.74,247.42C115.43,734.39,286.67,920,497.87,920S880.3,734.39,880.3,505.62c0-90.64-26.88-174.56-72.55-242.75-14-146.13-181.18-274.14-308.7-274.14C373.54-11.27,204.45,26.12,191.17,258.2Z"/></clipPath><linearGradient id="linear-gradient" x1="295.93" y1="394.64" x2="722.71" y2="394.64" gradientUnits="userSpaceOnUse"><stop offset="0" stop-color="#fab98f"/><stop offset="1" stop-color="#fe9e5e"/></linearGradient><linearGradient id="linear-gradient-2" x1="625.84" y1="487.32" x2="767.46" y2="487.32" xlink:href="#linear-gradient"/></defs><g id="GENERO"><path class="cls-2" d="M105,555.33c0,217,176,393.11,393.06,393.11S891.12,772.38,891.12,555.33s-176-393.06-393.06-393.06S105,338.33,105,555.33Z" transform="translate(83.36 -43.5)"/><path class="cls-3" d="M133.5,555.33C133.5,756.65,296.74,920,498.06,920s364.56-163.3,364.56-364.62S699.38,190.77,498.06,190.77,133.5,354.06,133.5,555.33Z" transform="translate(83.36 -43.5)"/><g class="cls-4"><polygon class="cls-5" points="472.13 633.49 670.91 628.44 657.89 586.83 487.2 586.83 472.13 633.49"/><path class="cls-6" d="M266.82,1935.34l98.47,9.86c1.47-22.67,3-91.33,4.9-118l-102.82-5.67C267.37,1862.93,266.19,1921,266.82,1935.34Z" transform="translate(83.36 -43.5)"/><path class="cls-7" d="M254.08,1939.9l114.34,5.3c1.71-12.18,3.47-49.09,5.69-63.44l-119.39-3C254.72,1901,253.35,1932.18,254.08,1939.9Z" transform="translate(83.36 -43.5)"/><path class="cls-8" d="M228.67,1923c1.83-6.35,5.54-14.36,8.43-21.71,2.14-5.44,55.23-3.63,55.16,9.54a80.57,80.57,0,0,1-.53,9.05c9.09.25,18.94.31,29.35.11,22.63-.44,42.94-1.94,57.21-4,.57,20.85-1.84,56.89-1.39,80.07,0,0-237.62,40.66-274.37,5.3C92.17,1991.44,152.37,1949,228.67,1923Z" transform="translate(83.36 -43.5)"/><path class="cls-9" d="M376.94,1981.58c-.09,5.14-.12,10.11,0,14.52,0,0-237.62,40.66-274.37,5.3-1.46-1.4-1.5-3.46-.31-6C167.34,2010.85,317.88,1990.56,376.94,1981.58Z" transform="translate(83.36 -43.5)"/><path class="cls-10" d="M244,1943.25a3.32,3.32,0,0,0,2.75,1.38,3.21,3.21,0,0,0,1.88-.64,3.37,3.37,0,0,0,.73-4.68c-9-12.48-24.91-19.19-38.72-16.41a3.35,3.35,0,0,0,1.32,6.57C223.32,1927.1,236.49,1932.82,244,1943.25Zm-16.88,7.88a3.28,3.28,0,0,0,2.51,1.09,3.23,3.23,0,0,0,2.17-.87,3.36,3.36,0,0,0,.21-4.73c-10.29-11.39-24.52-17.14-39.05-15.66a3.32,3.32,0,0,0-3,3.65,3.25,3.25,0,0,0,3.62,3C200.93,1936.89,215,1937.7,227.13,1951.13Zm-56.33-7.37a3.26,3.26,0,0,0,3.78,2.79c11.06-1.88,25.49,3.84,35,13.52a3.31,3.31,0,0,0,4.69,0,3.38,3.38,0,0,0,0-4.74c-10.89-11.11-27.59-17.48-40.7-15.42A3.34,3.34,0,0,0,170.8,1943.76Z" transform="translate(83.36 -43.5)"/><path class="cls-6" d="M672.63,1935.34l-98.48,9.86c-1.47-22.67-3-91.33-4.89-118l102.81-5.67C672.07,1862.93,673.25,1921,672.63,1935.34Z" transform="translate(83.36 -43.5)"/><path class="cls-7" d="M685.36,1939.9,571,1945.2c-1.71-12.18-3.46-49.09-5.69-63.44l119.39-3C684.72,1901,686.09,1932.18,685.36,1939.9Z" transform="translate(83.36 -43.5)"/><path class="cls-8" d="M710.77,1923c-1.83-6.35-5.54-14.36-8.43-21.71-2.14-5.44-55.23-3.63-55.15,9.54a80.74,80.74,0,0,0,.52,9.05c-9.08.25-18.94.31-29.35.11-22.63-.44-42.94-1.94-57.21-4-.57,20.85,1.84,56.89,1.39,80.07,0,0,237.63,40.66,274.37,5.3C847.27,1991.44,787.07,1949,710.77,1923Z" transform="translate(83.36 -43.5)"/><path class="cls-9" d="M562.51,1981.58c.08,5.14.12,10.11,0,14.52,0,0,237.63,40.66,274.37,5.3,1.46-1.4,1.5-3.46.31-6C772.1,2010.85,621.57,1990.56,562.51,1981.58Z" transform="translate(83.36 -43.5)"/><path class="cls-10" d="M727.47,1929.47a3.35,3.35,0,0,0,1.32-6.57c-13.81-2.78-29.73,3.93-38.72,16.41a3.37,3.37,0,0,0,.73,4.68,3.25,3.25,0,0,0,1.88.64,3.31,3.31,0,0,0,2.75-1.38C703,1932.82,716.12,1927.1,727.47,1929.47Zm18.36,8.15a3.25,3.25,0,0,0,3.62-3,3.32,3.32,0,0,0-3-3.65c-14.54-1.48-28.76,4.27-39.06,15.66a3.36,3.36,0,0,0,.21,4.73,3.23,3.23,0,0,0,2.17.87,3.28,3.28,0,0,0,2.51-1.09C724.46,1937.7,738.51,1936.89,745.83,1937.62Zm20,2.32c-13.1-2.06-29.81,4.31-40.7,15.42a3.38,3.38,0,0,0,0,4.74,3.31,3.31,0,0,0,4.69,0c9.49-9.68,23.92-15.4,35-13.52a3.26,3.26,0,0,0,3.78-2.79A3.34,3.34,0,0,0,765.87,1939.94Z" transform="translate(83.36 -43.5)"/><path class="cls-11" d="M504.54,1167.17c39.63,1.11,172.63-10.34,172.63-10.34,8,268.23,12.69,568,15.88,686.49l-137.35,3.29c-8.13-82.76-22.83-397-44.84-541.83-4.58-19.86-44.06-21.06-48.15-2.45-33.2,151.22-65.71,441.8-77.84,550.55l-136.3-10c11.75-147.58,36.47-450.09,52-682C300.58,1160.82,422.55,1164.87,504.54,1167.17Z" transform="translate(83.36 -43.5)"/><path class="cls-12" d="M670,1283.8c-41.5,13.36-185.07-49-264.55-49.15-.38,15.27-1.31,65.27-1.47,73-31.82-3.26-80.65-19.28-110.54-45.77,2.5-39.15,5-72.12,7.13-109,0,0,122-4.06,204-1.43,39.63,1.28,158.57,3.65,158.57,3.65C665.89,1197,668.14,1240.18,670,1283.8Z" transform="translate(83.36 -43.5)"/><path class="cls-6" d="M131.21,837C107.33,831.4,24.66,756.34-24.58,699.25c-9.92,15.69-53.08,36.23-58.78,42.84,73.06,93.28,178,194.84,217,199.06,45.21,4.9,105.08-51.78,246.2-145.1,4.11-7.16-52.79-89.2-70.61-97.15C261.75,730.89,156.88,829.6,131.21,837Z" transform="translate(83.36 -43.5)"/><path class="cls-13" d="M290.75,1207c31,36.8,356.4,33.34,379.26,10.12,0,0-1.16-430.33-10-540.51-85.57-22.76-238.52-19.06-334.79-2.47C316.35,799.4,290.75,1207,290.75,1207Z" transform="translate(83.36 -43.5)"/><path class="cls-14" d="M577.9,663.32c39.64,3.61,50.19,2.59,82.08,12.2,8.87,102.54,25.83,502,25.83,502-18.09,17.11-47.71,65.23-122.34,74.32,0,0-3.11-390.36-.5-526.44C580.86,711.23,577.9,663.32,577.9,663.32Z" transform="translate(83.36 -43.5)"/><path class="cls-14" d="M399.42,1289.6c-70.34-10.56-108.67-27.68-124.64-47,0,0,41.57-443.16,50.41-568.41,27-4.4,38.81-6.23,70.82-7.85L415,730.89Z" transform="translate(83.36 -43.5)"/><path class="cls-6" d="M405.53,677a44.46,44.46,0,0,1,2.06-13c52.38-3.81,109.71-4.54,161-1.14A44.57,44.57,0,0,1,571.18,677c0,33.21-37.08,60.14-82.82,60.14S405.53,710.2,405.53,677Z" transform="translate(83.36 -43.5)"/><path class="cls-6" d="M552.63,588.4v93.94c0,20.2-27.62,36.57-61.7,36.57s-61.7-16.37-61.7-36.57V588.4Z" transform="translate(83.36 -43.5)"/><path class="cls-14" d="M278.76,911.64c-33.34-16.39-84.31-71.82-107.93-102.93,29.31-30.78,96.78-96.7,130.32-133.42,22.86-2.85,32.26-3.64,52.36-6.09-18,73.86-22,161.27-26.6,183.9C317.61,863.32,290.91,897.44,278.76,911.64Z" transform="translate(83.36 -43.5)"/><path class="cls-15" d="M337.85,754.81c15.66-9.94,59.24-32.15,76.13-30.22-1.92-.52-22.06-34.84-15.66-59-.91.82-28.53,5-29.92,6.26C363.17,677.89,342.16,719.68,337.85,754.81Z" transform="translate(83.36 -43.5)"/><path class="cls-14" d="M350.55,738c15.33-18.06,43.14-30.74,64.41-12,0-2.88-21.79-65-11.5-95.69-3.56,3.35-32.78,33.93-34.45,35.42C361.27,679.71,353.83,715.05,350.55,738Z" transform="translate(83.36 -43.5)"/><path class="cls-15" d="M637.65,757.06c-.6-.6-57.8-33.61-74.68-31.69,1.91-.52,23.1-35.62,16.71-59.79.9.82,29.61,2.4,31,3.62C615.91,675.25,628.88,718.27,637.65,757.06Z" transform="translate(83.36 -43.5)"/><path class="cls-14" d="M627.73,739.6c-15.33-18.06-43.49-33-64.76-14.23,0-2.88,21.86-64.32,11.57-95,3.55,3.35,32.78,33.93,34.45,35.42C616.73,679.71,624.46,716.66,627.73,739.6Z" transform="translate(83.36 -43.5)"/><rect class="cls-16" x="292.15" y="1747.65" width="54.43" height="160.02" transform="translate(-1435.22 2037.7) rotate(-87.94)"/><rect class="cls-16" x="545.02" y="1800.44" width="160.02" height="54.43" transform="translate(18.14 -19.88) rotate(-2.06)"/><path class="cls-17" d="M802.83,1333.87l-8.31-246-288.69-35.05-22.2,28.33a19.48,19.48,0,0,0-3.8,10.46l-9,211.33c-.13,3,2.48,5.69,5.92,6l319.12,30.3C799.63,1339.72,802.86,1337.19,802.83,1333.87Z" transform="translate(83.36 -43.5)"/><polygon class="cls-18" points="880.21 1284.18 908.46 1251.76 899.44 1050.78 595.13 1017.87 575.8 1043.45 569.22 1251.43 880.21 1284.18"/><path class="cls-19" d="M831,1307.67l-9.24-217.88-315.9-36.94L502.37,1273c-.08,4.58,3.89,8.58,9.1,9.16l308.66,34.22C826.1,1317,831.19,1312.93,831,1307.67Z" transform="translate(83.36 -43.5)"/><path class="cls-14" d="M674.87,919.4c31.39-7.55,98.82-55.2,126.19-73.65C766.44,789,716.86,719.55,686.75,680c-22.52-4.9-31.8-6.53-51.61-10.77,11.3,75.18-5,160.61,2.51,181.29C647.41,877.26,667.5,907,674.87,919.4Z" transform="translate(83.36 -43.5)"/><path class="cls-15" d="M393,613.25a44.78,44.78,0,0,1,2.06-13c52.38-3.81,109.71-4.55,161-1.14a44.18,44.18,0,0,1,2.55,14.14c0,33.22-37.08,60.15-82.82,60.15S393,646.47,393,613.25Z" transform="translate(83.36 -43.5)"/><path class="cls-20" d="M256,450.39c4.69,45.74,42.94,79.89,75.48,80.49s44.13-34.57,44.93-77.83-24.95-78.94-57.5-79.42C274.41,373,251.59,407.38,256,450.39Z" transform="translate(83.36 -43.5)"/><path class="cls-21" d="M270.1,329c-4.41,175.09,89.9,251.45,234.22,255,91.52,2.28,224.25-49.71,253.69-241.53C779.29,204,660.45,118.09,516.13,114.46S274.5,153.92,270.1,329Z" transform="translate(83.36 -43.5)"/><path class="cls-22" d="M321.21,209.25c-18.19,170.4-24.93,207.54-25.28,283.4-.29,62.71,62,138.57,130.5,148.54,68.22,9.94,202.12-25.39,224-87.81,38.42-109.81,83-267.52,70-295.81-22.27-48.36-67.85-87-189.35-107.71C450.61,136.12,325.92,165.15,321.21,209.25Z" transform="translate(83.36 -43.5)"/><path class="cls-21" d="M654.21,357.07c-10.18,52.15-50.46,122,7.14,131.36,52.38,8.5,82.29-82.2,84.38-165.44S708.64,152.25,605.89,156.93C552.92,159.34,681.52,217.14,654.21,357.07Z" transform="translate(83.36 -43.5)"/><path class="cls-23" d="M755.88,517c-23.08,48.19-74,68-105.7,53.61s-28.74-58.52-12-106.51,56.15-75.32,87.86-60.76C769.42,423.23,777.57,471.7,755.88,517Z" transform="translate(83.36 -43.5)"/><path class="cls-24" d="M709.15,516.55c-10.42,23.22-35.51,30.89-45.54,23.55-11.29-8.24-10.28-22.39-4.11-45.52,7.21-27,19.5-41.22,36.3-33.66C713.26,468.77,721.43,489.23,709.15,516.55Z" transform="translate(83.36 -43.5)"/><path class="cls-21" d="M295.17,94c-3.55,22.4,8.3,40.72,28.51,56-14.22-26.85-16.09-62,12.44-106.47,21.23,15.5,43.79,31.87,66.34,48.12a91.91,91.91,0,0,1,.11-37.57C420.5,83.1,428,98.3,594.31,127c82.78,14.29,97.88,78.18,80.49,86.92-57.15,28.75-126.37,38.78-186.53,40.92-75.41,2.67-123.47-7.48-165.38-32.52C284.79,199.59,251,148.28,295.17,94Z" transform="translate(83.36 -43.5)"/></g></g></svg>