<?xml version="1.0" encoding="utf-8"?>
<!-- Generator: Adobe Illustrator 26.0.1, SVG Export Plug-In . SVG Version: 6.00 Build 0)  -->
<svg version="1.1" id="Camada_1" xmlns="http://www.w3.org/2000/svg" xmlns:xlink="http://www.w3.org/1999/xlink" x="0px" y="0px"
	 viewBox="0 0 789.2 897" style="enable-background:new 0 0 789.2 897;" xml:space="preserve">
<style type="text/css">
	.st0{fill:#05CED1;}
	.st1{fill:#FFFFFF;}
	.st2{clip-path:url(#SVGID_00000084491263964556582530000017862058519477901247_);}
	.st3{fill:#666666;}
	.st4{fill:url(#SVGID_00000055701458273371728220000012139286298492709809_);}
	.st5{fill:#383D47;}
	.st6{fill:url(#SVGID_00000044136490381679691100000014440515822345743234_);}
	.st7{fill:url(#SVGID_00000146491964469555721160000002554336119306917519_);}
</style>
<g id="GENERO">
	<path class="st0" d="M789.2,502.4c0,217.9-176.7,394.6-394.6,394.6S0,720.3,0,502.4s176.7-394.6,394.6-394.6
		S789.2,284.5,789.2,502.4z"/>
	<path class="st1" d="M759.6,502.4c0,201.5-163.4,365-365,365s-365-163.5-365-365s163.5-364.9,365-364.9S759.6,300.9,759.6,502.4z"
		/>
	<g>
		<defs>
			<path id="SVGID_1_" d="M634.6,227.4c79.5,69.2,125.1,169.6,125,275c0,201.5-163.4,365-365,365s-365-163.4-365-365
				c-0.1-99.7,40.7-195,112.8-263.8C70.6,52.2,296.8-67.5,394.6-67.5C486.5-67.5,705.8,65.2,634.6,227.4z"/>
		</defs>
		<clipPath id="SVGID_00000168822509572605009510000005850142699808740284_">
			<use xlink:href="#SVGID_1_"  style="overflow:visible;"/>
		</clipPath>
		<g style="clip-path:url(#SVGID_00000168822509572605009510000005850142699808740284_);">
			<path class="st3" d="M634.2,836.8C599.3,738.1,505.4,667.4,395,667l0,0h-0.8l0,0c-110.5,0.4-204.3,71.2-239.2,169.8
				c-3.5,10-1.8,31.2,24.2,31.2h430.6C635.9,868,637.7,846.8,634.2,836.8z"/>
			
				<linearGradient id="SVGID_00000122698050916129537710000012304817098237055391_" gradientUnits="userSpaceOnUse" x1="435.16" y1="178.405" x2="568.16" y2="178.405" gradientTransform="matrix(1 0 0 -1 -102.16 841.47)">
				<stop  offset="0" style="stop-color:#FAB98F"/>
				<stop  offset="1" style="stop-color:#FE9E5E"/>
			</linearGradient>
			<path style="fill:url(#SVGID_00000122698050916129537710000012304817098237055391_);" d="M466,670.8c0,28.6-17.2,70.7-53.8,70.7
				l-10.1,0.7c-36.8,0-69.1-42.8-69.1-71.3v-35.1c0-28.5,29.8-51.7,66.6-51.7l0,0c36.6,0,66.4,23.1,66.4,51.7V670.8z"/>
			<path class="st5" d="M179,278.8c0,0,14.7,221,74.6,272.2l-8.7-234l-19.9-78L179,278.8z"/>
			
				<linearGradient id="SVGID_00000098222621158729967280000013287259444931349394_" gradientUnits="userSpaceOnUse" x1="430.9031" y1="700.9346" x2="230.7432" y2="269.4846" gradientTransform="matrix(1 0 0 -1 -102.16 841.47)">
				<stop  offset="0" style="stop-color:#FAB98F"/>
				<stop  offset="1" style="stop-color:#FE9E5E"/>
			</linearGradient>
			<path style="fill:url(#SVGID_00000098222621158729967280000013287259444931349394_);" d="M268.9,421.2c0,27.9-39,50.5-39,50.5
				c-28,0-59.3-24.8-62.4-69.5l-4-48.8c0-28,10.5-49.5,54.8-44.9l0,0c28,0,50.7,22.7,50.7,50.7L268.9,421.2z"/>
			
				<linearGradient id="SVGID_00000003826028881629487670000015359382800401885069_" gradientUnits="userSpaceOnUse" x1="583.1287" y1="630.5918" x2="382.9753" y2="199.1592" gradientTransform="matrix(1 0 0 -1 -102.16 841.47)">
				<stop  offset="0" style="stop-color:#FAB98F"/>
				<stop  offset="1" style="stop-color:#FE9E5E"/>
			</linearGradient>
			<path style="fill:url(#SVGID_00000003826028881629487670000015359382800401885069_);" d="M595,433.8
				c0,99.9-67.1,224.6-166.7,224.6l0,0c-99.7,0-194.3-91.7-194.3-191.6V256.7C234,156.9,314.7,76,414.4,76c0,0,0.1,0,0.1,0l0,0
				C514.1,76,595,106.1,595,205.9V433.8z"/>
			<path class="st5" d="M589.4,490.3c-4.5,21.5-20.5,21.8-27.2,9.8c-25.3-45.5-48.8-56.6-105.9-56.6c-80.7,0-92.3,70.1-133.9,70.1
				c-41.8,0-62.5-58.4-62.5-78.9V368h-26l-2.7,75.5c0,211.9,161.3,234.4,213.2,227.5c113.1-16.9,143.8-131.4,143-147.6
				C587.5,522.2,589.7,491.3,589.4,490.3z M461.1,584c-70.2,3.9-87.1-40.1-97.4-62.5c0,0,36.3-44.3,100-44.3s88.3,37.8,88.3,37.8
				S531.2,580,461.1,584L461.1,584z"/>
			<path class="st5" d="M360.2,0.7C256.2,5.9,242.5,73.4,242.5,73.4c-120.6,70.6-65.4,204.7-59.9,212.3
				c11.9-7.3,48.5,19.2,51.9,26.6c1.3,3.1-1.2,64.5-1.2,64.5l21.9,14.1c2.5,10.5,14.4-41.6,9.2-90.1
				c-12.8-122.9,103-121,165.7-122.4c60.6-1.4,105.5,11.9,163.9,20.6C689.8,181,634-13.1,360.2,0.7z"/>
		</g>
	</g>
</g>
</svg>
