<?xml version="1.0" encoding="utf-8"?>
<!-- Generator: Adobe Illustrator 26.0.1, SVG Export Plug-In . SVG Version: 6.00 Build 0)  -->
<svg version="1.1" id="Camada_1" xmlns="http://www.w3.org/2000/svg" xmlns:xlink="http://www.w3.org/1999/xlink" x="0px" y="0px"
	 viewBox="0 0 1500.2 666.8" style="enable-background:new 0 0 1500.2 666.8;" xml:space="preserve">
<style type="text/css">
	.st0{clip-path:url(#SVGID_00000036220100342589277670000003438793256514028449_);}
	.st1{clip-path:url(#SVGID_00000176028305171706316760000007177797934782061747_);}
	.st2{fill:#E3674B;}
	.st3{fill:none;stroke:#E3674B;stroke-width:0.9976;stroke-miterlimit:10;}
	.st4{fill:#665A66;stroke:#665A66;stroke-width:0.4988;stroke-miterlimit:10;}
	.st5{clip-path:url(#SVGID_00000098200441716650893810000010534365292071813032_);}
	.st6{fill:url(#SVGID_00000032626885027073610590000001958555592417201036_);}
	.st7{clip-path:url(#SVGID_00000137104562694478720740000005853421433488404883_);}
	.st8{fill:url(#SVGID_00000003808849521353393350000014760785199226586029_);}
	.st9{enable-background:new    ;}
	.st10{fill:#665A66;}
	.st11{clip-path:url(#SVGID_00000095330324246898522550000001961301530177474226_);}
	.st12{fill:#665A66;stroke:#FFFFFF;stroke-width:0.4988;stroke-miterlimit:10;}
	.st13{fill:#665A66;stroke:#665A66;stroke-width:0.6397;stroke-miterlimit:10;}
	.st14{fill:#665A66;stroke:#665A66;stroke-width:3;stroke-miterlimit:10;}
</style>
<g>
	<g>
		<g>
			<defs>
				<rect id="SVGID_1_" x="800.2" y="-68" width="403.3" height="401.4"/>
			</defs>
			<clipPath id="SVGID_00000137131134165818290290000012394435264785533317_">
				<use xlink:href="#SVGID_1_"  style="overflow:visible;"/>
			</clipPath>
			<g style="clip-path:url(#SVGID_00000137131134165818290290000012394435264785533317_);">
				<g>
					<g>
						<g>
							<defs>
								<rect id="SVGID_00000096023283572605645490000016626530791964697780_" x="800.2" y="-68" width="403.3" height="401.4"/>
							</defs>
							<clipPath id="SVGID_00000152956532229313303610000009310547125000212904_">
								<use xlink:href="#SVGID_00000096023283572605645490000016626530791964697780_"  style="overflow:visible;"/>
							</clipPath>
							<g style="clip-path:url(#SVGID_00000152956532229313303610000009310547125000212904_);">
								<path class="st2" d="M820.3,130.7H836c0.5,0,1,0.5,1,0.9l0,0v26.1c0,0.5,0.4,0.9,0.9,0.9l0,0h23.4c0.5,0,1-0.5,1-0.9l0,0
									v-26.1c0-0.6,0.4-0.9,0.9-0.9l0,0h15.6c0.5,0,1,0.4,1,0.9l0,0v68.9c0,0.5-0.4,0.9-1,0.9l0,0h-15.6c-0.5,0-0.9-0.5-0.9-0.9
									l0,0v-26.6c0-0.5-0.5-0.9-1-0.9h-23.4c-0.5,0-0.9,0.4-0.9,0.9l0,0v26.6c0,0.6-0.5,0.9-1,0.9l0,0h-15.6
									c-0.5,0-0.9-0.5-0.9-0.9l0,0v-68.9C819.3,131.2,819.8,130.7,820.3,130.7L820.3,130.7"/>
								<path class="st3" d="M820.3,130.7H836c0.5,0,1,0.5,1,0.9l0,0v26.1c0,0.5,0.4,0.9,0.9,0.9l0,0h23.4c0.5,0,1-0.5,1-0.9l0,0
									v-26.1c0-0.6,0.4-0.9,0.9-0.9l0,0h15.6c0.5,0,1,0.4,1,0.9l0,0v68.9c0,0.5-0.4,0.9-1,0.9l0,0h-15.6c-0.5,0-0.9-0.5-0.9-0.9
									l0,0v-26.6c0-0.5-0.5-0.9-1-0.9h-23.4c-0.5,0-0.9,0.4-0.9,0.9l0,0v26.6c0,0.6-0.5,0.9-1,0.9l0,0h-15.6
									c-0.5,0-0.9-0.5-0.9-0.9l0,0v-68.9C819.3,131.2,819.8,130.7,820.3,130.7L820.3,130.7z"/>
								<path class="st4" d="M938.2,188.3h-25.6c-0.2,0-0.4,0.2-0.5,0.4l-4,12.9c-0.1,0.3-0.3,0.4-0.6,0.4h-17.1
									c-0.3,0-0.5-0.3-0.5-0.6c0-0.1,0-0.1,0-0.2l24.6-69.7c0.1-0.3,0.3-0.4,0.6-0.4h22.2c0.2,0,0.5,0.2,0.5,0.4l24.5,69.7
									c0.1,0.3,0,0.6-0.3,0.7c-0.1,0-0.1,0.1-0.2,0.1h-18.6c-0.2,0-0.5-0.2-0.5-0.4l-4-12.9C938.6,188.4,938.3,188.3,938.2,188.3
									 M934.3,174.8l-8.4-26.8c-0.1-0.3-0.4-0.5-0.7-0.4c-0.2,0.1-0.3,0.2-0.3,0.4l-8.4,26.8c-0.1,0.3,0.1,0.6,0.4,0.7
									c0,0,0.1,0,0.2,0h16.8c0.3,0,0.5-0.3,0.5-0.6C934.3,174.9,934.3,174.9,934.3,174.8"/>
								<path class="st4" d="M1010.8,201.9c-0.3,0-0.6-0.2-0.8-0.5l-12.5-21.8h-6.8c-0.5,0-1,0.5-1,0.9l0,0v20.4
									c0,0.6-0.5,0.9-1,0.9h-15.6c-0.5,0-1-0.4-1-0.9V132c0-0.6,0.5-0.9,1-0.9h23.9c17.9,0,28.2,8.8,28.2,24.3
									c0,10-4.2,17.2-12,21c-0.5,0.3-0.6,0.8-0.5,1.3c0,0.1,0,0.1,0,0.1l15.5,22.8c0.3,0.5,0.2,1-0.2,1.4
									c-0.1,0.1-0.3,0.2-0.5,0.2L1010.8,201.9z M989.8,164.4c0,0.5,0.4,0.9,1,0.9l0,0h6c6.6,0,10.5-3.7,10.5-10.1
									c0-6.3-3.9-10-10.5-10h-6c-0.5,0-1,0.4-1,0.9l0,0V164.4z"/>
							</g>
						</g>
					</g>
				</g>
				<g>
					<g>
						<g>
							<defs>
								<path id="SVGID_00000164480491794000801110000009695696636970230717_" d="M1165.2,20.8c-12.8,20.2-78.8,124.1-78.5,124.3
									l-0.3,0.6c-0.2,0.4-0.1,0.7,0.3,0.9c0.1,0.1,0.2,0.1,0.3,0.1l35.2,0.4c0.5,0,0.8,0.4,0.8,0.8c0,0.1,0,0.1,0,0.1l-14.8,91.4
									c-0.1,0.4,0.2,0.7,0.6,0.8c0.2,0.1,0.6-0.1,0.7-0.3l75.4-112.5c0-0.1,0-0.2-0.1-0.3c-0.1,0-0.1-0.1-0.1-0.1l-39.2-0.6
									c-0.8,0-1.5-0.7-1.5-1.6c0-0.1,0-0.2,0-0.3l22.5-103.4c0.1-0.4-0.1-0.7-0.5-0.8c0,0-0.1,0-0.2,0
									C1165.6,20.5,1165.3,20.6,1165.2,20.8"/>
							</defs>
							<clipPath id="SVGID_00000143586729706433565010000006330291021982061231_">
								<use xlink:href="#SVGID_00000164480491794000801110000009695696636970230717_"  style="overflow:visible;"/>
							</clipPath>
							<g style="clip-path:url(#SVGID_00000143586729706433565010000006330291021982061231_);">
								
									<linearGradient id="SVGID_00000078043426721718505020000014517362999863603902_" gradientUnits="userSpaceOnUse" x1="1355.5886" y1="731.2015" x2="1355.9937" y2="731.2015" gradientTransform="matrix(-247.36 0 0 -247.36 336503.3125 181000.5156)">
									<stop  offset="0" style="stop-color:#EE3B2C"/>
									<stop  offset="8.000000e-02" style="stop-color:#EE3B2C"/>
									<stop  offset="0.34" style="stop-color:#EF4E2D"/>
									<stop  offset="1" style="stop-color:#F37C5D"/>
								</linearGradient>
								
									<rect x="1086.1" y="20.5" style="fill:url(#SVGID_00000078043426721718505020000014517362999863603902_);" width="98.8" height="220.1"/>
							</g>
						</g>
					</g>
				</g>
				<g>
					<g>
						<g>
							<defs>
								<path id="SVGID_00000057120900213893910510000002325348145157108658_" d="M819.7,211.9c-0.5,0-1,0.5-1,0.9v6.4
									c0,0.5,0.4,0.9,1,0.9l0,0h272.7c0.5,0,1-0.5,1-0.9l0,0v-6.4c0-0.5-0.4-0.9-1-0.9L819.7,211.9L819.7,211.9z"/>
							</defs>
							<clipPath id="SVGID_00000023243071894212162900000008379428985272898213_">
								<use xlink:href="#SVGID_00000057120900213893910510000002325348145157108658_"  style="overflow:visible;"/>
							</clipPath>
							<g style="clip-path:url(#SVGID_00000023243071894212162900000008379428985272898213_);">
								
									<linearGradient id="SVGID_00000008861973483520567270000002805276887169001633_" gradientUnits="userSpaceOnUse" x1="1348.7664" y1="733.465" x2="1349.1663" y2="733.465" gradientTransform="matrix(680.98 0 0 680.98 -917663.4375 -499258.875)">
									<stop  offset="0" style="stop-color:#E3674B"/>
									<stop  offset="0.98" style="stop-color:#ED372D"/>
									<stop  offset="1" style="stop-color:#ED372D"/>
								</linearGradient>
								
									<rect x="818.8" y="211.9" style="fill:url(#SVGID_00000008861973483520567270000002805276887169001633_);" width="274.6" height="8.4"/>
							</g>
						</g>
					</g>
				</g>
				<g class="st9">
					<path class="st10" d="M833.2,117l-15.2-63.2h13.2l9.5,43.4l11.6-43.4h15.2l11.1,44.2l9.8-44.2h12.9L886,117h-13.6l-12.6-47.3
						L847.2,117L833.2,117L833.2,117z"/>
				</g>
				<g class="st9">
					<path class="st10" d="M911.7,85.8c0-6.4,0.9-11.8,2.9-16.2c1.5-3.2,3.4-6.1,5.9-8.7c2.5-2.5,5.2-4.5,8.2-5.7
						c3.9-1.7,8.5-2.5,13.7-2.5c9.4,0,16.9,2.9,22.5,8.7c5.6,5.8,8.4,13.8,8.4,24.1c0,10.2-2.8,18.2-8.3,23.9
						c-5.5,5.8-13,8.7-22.3,8.7c-9.5,0-17-2.9-22.6-8.6C914.5,103.7,911.7,95.8,911.7,85.8z M924.8,85.3c0,7.2,1.7,12.6,5,16.3
						c3.3,3.7,7.6,5.5,12.7,5.5s9.3-1.8,12.6-5.5c3.3-3.7,4.9-9.1,4.9-16.5c0-7.3-1.6-12.6-4.8-16.2c-3.2-3.6-7.5-5.4-12.7-5.4
						s-9.5,1.8-12.8,5.4C926.5,72.6,924.8,78.1,924.8,85.3z"/>
					<path class="st10" d="M981.7,53.8h25.4c5,0,8.8,0.2,11.2,0.6c2.5,0.4,4.7,1.3,6.6,2.6c2,1.4,3.6,3.1,4.9,5.3
						c1.3,2.2,1.9,4.7,1.9,7.4c0,3-0.8,5.7-2.4,8.2c-1.6,2.5-3.8,4.3-6.5,5.6c3.8,1.1,6.8,3,8.9,5.7c2.1,2.7,3.1,5.9,3.1,9.5
						c0,2.9-0.7,5.7-2,8.4c-1.3,2.8-3.2,4.9-5.5,6.5c-2.3,1.7-5.2,2.6-8.6,3c-2.2,0.3-7.3,0.4-15.5,0.5h-21.6L981.7,53.8L981.7,53.8
						z M994.5,64.3V79h8.4c5,0,8.1-0.1,9.3-0.2c2.2-0.3,3.9-1,5.2-2.2c1.3-1.2,1.9-2.9,1.9-4.9c0-1.9-0.5-3.5-1.6-4.8
						c-1.1-1.2-2.7-1.9-4.9-2.2c-1.2-0.2-4.9-0.2-11-0.2L994.5,64.3L994.5,64.3z M994.5,89.5v16.9h11.9c4.6,0,7.5-0.2,8.8-0.4
						c1.9-0.4,3.5-1.2,4.7-2.5c1.2-1.4,1.8-3.1,1.8-5.4c0-1.9-0.5-3.5-1.4-4.8c-0.9-1.4-2.2-2.3-4-2.9c-1.8-0.6-5.6-0.9-11.4-0.9
						L994.5,89.5L994.5,89.5z"/>
				</g>
				<g class="st9">
					<path class="st10" d="M1037.8,85.8c0-6.4,1-11.8,2.9-16.2c1.4-3.2,3.4-6.1,5.9-8.7c2.5-2.5,5.2-4.5,8.2-5.7
						c4-1.7,8.5-2.5,13.7-2.5c9.3,0,16.8,2.9,22.4,8.7c5.6,5.8,8.5,13.8,8.5,24.1c0,10.2-2.8,18.2-8.3,23.9
						c-5.6,5.8-13.1,8.7-22.4,8.7c-9.4,0-16.9-2.9-22.5-8.6C1040.7,103.7,1037.8,95.8,1037.8,85.8z M1051.1,85.3
						c0,7.2,1.7,12.6,5,16.3c3.3,3.7,7.6,5.5,12.7,5.5s9.3-1.8,12.6-5.5c3.3-3.7,4.9-9.1,4.9-16.5c0-7.3-1.6-12.6-4.8-16.2
						c-3.2-3.6-7.4-5.4-12.7-5.4s-9.6,1.8-12.8,5.4S1051.1,78.1,1051.1,85.3z"/>
				</g>
				<g>
					<g>
						<g>
							<defs>
								<rect id="SVGID_00000066499779084982758830000000989912047599088809_" x="800.2" y="-68" width="403.3" height="401.4"/>
							</defs>
							<clipPath id="SVGID_00000124133353865242667810000017836422234322201994_">
								<use xlink:href="#SVGID_00000066499779084982758830000000989912047599088809_"  style="overflow:visible;"/>
							</clipPath>
							<g style="clip-path:url(#SVGID_00000124133353865242667810000017836422234322201994_);">
								<path class="st4" d="M908.7,54h-16.5l-7,31.7c-1.7,7.8-2.7,13.5-3.1,16.6c-0.3-2.5-0.9-6.2-1.9-11.2s-1.9-9.4-2.8-13.2
									L872,54h-15.9l-5.6,23.8c-0.9,3.3-1.8,7.5-2.7,12.5c-1,5-1.6,9-2,11.9c-0.6-4.2-1.6-9.7-3.2-16.7L835.7,54h-16.5l15.7,63.1
									h20.2c3.7-16.5,5.8-26,6.3-28.3c0.5-2.3,1-4.9,1.5-7.7c0.5-2.8,0.9-5.1,1.1-7c0.3,2.3,0.8,5.2,1.4,8.6
									c0.6,3.4,1,5.7,1.3,6.9l6.1,27.5h20.3L908.7,54z"/>
								<path class="st4" d="M943.2,66.9c4.2,0,7.4,1.5,9.5,4.5c2.1,3,3.2,7.7,3.2,13.9c0,6.3-1,10.9-3.2,13.8
									c-2.1,2.9-5.3,4.4-9.6,4.4c-8.5,0-12.8-6.1-12.8-18.3C930.3,73.1,934.6,66.9,943.2,66.9z M966.1,61.2
									c-5.2-5.5-12.8-8.2-22.9-8.2c-10.1,0-17.8,2.8-23,8.3c-5.3,5.5-7.9,13.6-7.9,24.1c0,10.6,2.6,18.7,7.9,24.3
									c5.3,5.5,13,8.3,22.9,8.4c10.1,0,17.8-2.8,23-8.3c5.2-5.5,7.9-13.6,7.9-24.2C973.8,74.8,971.3,66.7,966.1,61.2z"/>
								<path class="st4" d="M1005.8,90.6c2.7,0,4.8,0.6,6.2,1.7c1.4,1.1,2.1,2.8,2.1,4.8c0,4.5-2.6,6.7-8,6.7h-6V90.6L1005.8,90.6
									L1005.8,90.6z M1000.2,66.9h4.8c5.4,0,8,1.8,8,5.4c0,2-0.7,3.5-2,4.5c-1.3,1-3.2,1.5-5.7,1.5h-5.1V66.9z M983.2,117h24.6
									c7.5,0,13.3-1.7,17.7-4.9c4.3-3.3,6.5-7.8,6.5-13.6c0-3.8-0.9-7-2.7-9.4c-1.8-2.4-4.6-4.2-8.5-5.2v-0.4
									c2.9-0.7,5.5-2.4,7.2-4.8c1.8-2.5,2.8-5.5,2.8-9c0-5.4-2.1-9.4-6.2-11.9c-4.2-2.5-10.5-3.8-19.2-3.8h-22.1V117L983.2,117
									L983.2,117z"/>
								<path class="st4" d="M1069.2,66.9c4.2,0,7.4,1.5,9.5,4.5c2.1,3,3.2,7.7,3.2,13.9c0,6.3-1,10.9-3.1,13.8
									c-2.1,2.9-5.3,4.4-9.7,4.4c-8.5,0-12.8-6.1-12.8-18.3C1056.3,73.1,1060.7,66.9,1069.2,66.9z M1092.2,61.2
									c-5.2-5.5-12.8-8.2-22.9-8.2s-17.8,2.8-23,8.3s-7.9,13.6-7.9,24.1c0,10.6,2.7,18.7,8,24.3c5.3,5.5,12.9,8.3,22.9,8.4
									c10.1,0,17.8-2.8,23-8.3c5.2-5.5,7.8-13.6,7.8-24.2C1099.9,74.8,1097.3,66.7,1092.2,61.2z"/>
								<path class="st12" d="M1055.2,201.9h-17c-0.5,0-0.9-0.4-0.9-0.9l0,0v-68.6c0-0.5,0.4-0.9,0.9-0.9h40c0.5,0,0.9,0.5,0.9,0.9
									v13.4c0,0.5-0.4,0.9-1,0.9l0,0h-21.1c-0.5,0-1,0.4-1,0.9v11.6c0,0.5,0.4,0.9,1,0.9l0,0h19.3c0.5,0,1,0.4,1,0.9l0,0v13.4
									c0,0.5-0.4,0.9-1,0.9l0,0h-19.3c-0.5,0-1,0.4-1,0.9l0,0v24.5C1056.2,201.5,1055.8,201.9,1055.2,201.9"/>
								<path class="st4" d="M1055.2,201.9h-17c-0.5,0-0.9-0.4-0.9-0.9l0,0v-68.6c0-0.5,0.4-0.9,0.9-0.9h40c0.5,0,0.9,0.5,0.9,0.9
									v13.4c0,0.5-0.4,0.9-1,0.9l0,0h-21.1c-0.5,0-1,0.4-1,0.9v11.6c0,0.5,0.4,0.9,1,0.9l0,0h19.3c0.5,0,1,0.4,1,0.9l0,0v13.4
									c0,0.5-0.4,0.9-1,0.9l0,0h-19.3c-0.5,0-1,0.4-1,0.9l0,0v24.5C1056.2,201.5,1055.8,201.9,1055.2,201.9z"/>
								<path class="st12" d="M1082.3,146.3c-0.2,0.3-0.5,0.5-0.8,0.5l-43.5-0.2c-0.4,0-0.8-0.4-0.8-0.7l0,0v-14
									c0-0.4,0.3-0.7,0.8-0.7l0,0l52.1,0.2c0.5,0,1,0.5,0.9,0.9c0,0.2-0.1,0.4-0.2,0.5L1082.3,146.3"/>
								<path class="st4" d="M1082.3,146.3c-0.2,0.3-0.5,0.5-0.8,0.5l-43.5-0.2c-0.4,0-0.8-0.4-0.8-0.7l0,0v-14
									c0-0.4,0.3-0.7,0.8-0.7l0,0l52.1,0.2c0.5,0,1,0.5,0.9,0.9c0,0.2-0.1,0.4-0.2,0.5L1082.3,146.3z"/>
								<path class="st12" d="M1092.7,175.8h-38.5c-0.5,0-0.9-0.4-0.9-0.9v-14.3c0-0.5,0.4-0.9,0.9-0.9l0,0h38.5
									c0.5,0,0.9,0.4,0.9,0.9l0,0v14.2C1093.6,175.4,1093.2,175.8,1092.7,175.8"/>
								<path class="st4" d="M1054.2,159.8h38.5c0.5,0,0.9,0.4,0.9,0.9v14.2c0,0.5-0.4,0.9-0.9,0.9h-38.5c-0.5,0-0.9-0.4-0.9-0.9
									v-14.2C1053.3,160.2,1053.7,159.8,1054.2,159.8z"/>
							</g>
						</g>
					</g>
				</g>
			</g>
		</g>
	</g>
</g>
<g>
	<g>
		<path class="st13" d="M360,333.4l-18.7-65.2H355l16.2,57.7h-6.8l16.9-57.7h12.2l16.3,57.7h-6.6l16.6-57.7h12.6l-18.7,65.2h-14
			l-14.5-50.7h3.7l-14.8,50.7H360z"/>
		<path class="st13" d="M468.5,334.5c-4.5,0-8.7-0.8-12.5-2.5c-3.8-1.7-7.1-4-9.9-7.1c-2.8-3-5-6.6-6.6-10.7
			c-1.5-4.1-2.3-8.6-2.3-13.4c0-4.9,0.8-9.4,2.3-13.5c1.5-4.1,3.7-7.6,6.6-10.7c2.8-3,6.1-5.4,9.9-7.1c3.8-1.7,7.9-2.5,12.4-2.5
			c4.5,0,8.6,0.8,12.4,2.5c3.8,1.6,7.1,4,9.9,7c2.8,3,5,6.6,6.6,10.7c1.5,4.1,2.3,8.6,2.3,13.5c0,4.8-0.8,9.3-2.3,13.5
			c-1.5,4.1-3.7,7.7-6.6,10.8c-2.8,3-6.1,5.4-9.9,7C477.1,333.7,473,334.5,468.5,334.5z M468.4,321.8c2.6,0,4.9-0.5,7-1.5
			c2.1-1,4-2.5,5.7-4.4c1.6-1.9,2.9-4.1,3.8-6.6c0.9-2.5,1.3-5.3,1.3-8.4c0-3.1-0.4-5.9-1.3-8.4c-0.9-2.5-2.2-4.7-3.8-6.6
			c-1.6-1.9-3.5-3.4-5.7-4.4c-2.1-1-4.5-1.5-7-1.5c-2.6,0-4.9,0.5-7.1,1.5c-2.2,1-4.1,2.5-5.7,4.4c-1.6,1.9-2.8,4.1-3.7,6.6
			c-0.9,2.5-1.3,5.3-1.3,8.4c0,3.1,0.4,5.9,1.3,8.4c0.9,2.5,2.1,4.7,3.7,6.6c1.6,1.9,3.5,3.4,5.7,4.4
			C463.5,321.2,465.9,321.8,468.4,321.8z"/>
		<path class="st13" d="M509.5,333.4v-65.2h27.8c7.2,0,12.5,1.6,16.2,4.7c3.6,3.1,5.4,7.2,5.4,12.3c0,3.4-0.7,6.4-2.2,8.9
			c-1.5,2.5-3.5,4.5-6.1,5.8c-2.6,1.4-5.5,2-8.8,2l1.5-3.9c3.6,0,6.7,0.7,9.5,2c2.7,1.4,4.9,3.4,6.5,6c1.6,2.6,2.4,5.8,2.4,9.6
			c0,5.6-1.9,10-5.8,13.1c-3.9,3.1-9.5,4.7-17,4.7H509.5z M522.6,322H538c3.4,0,5.9-0.7,7.7-2c1.8-1.3,2.7-3.3,2.7-6.1
			c0-2.8-0.9-4.8-2.7-6.1c-1.8-1.3-4.4-2-7.7-2h-16.4v-11h14.1c3.2,0,5.7-0.6,7.4-1.9c1.7-1.3,2.6-3.2,2.6-5.8
			c0-2.6-0.9-4.5-2.6-5.8c-1.7-1.2-4.2-1.9-7.4-1.9h-13.1V322z"/>
		<path class="st13" d="M599.3,334.5c-4.5,0-8.7-0.8-12.5-2.5c-3.8-1.7-7.1-4-9.9-7.1c-2.8-3-5-6.6-6.6-10.7
			c-1.5-4.1-2.3-8.6-2.3-13.4c0-4.9,0.8-9.4,2.3-13.5c1.5-4.1,3.7-7.6,6.6-10.7c2.8-3,6.1-5.4,9.9-7.1c3.8-1.7,7.9-2.5,12.4-2.5
			c4.5,0,8.6,0.8,12.4,2.5c3.8,1.6,7.1,4,9.9,7c2.8,3,5,6.6,6.6,10.7c1.5,4.1,2.3,8.6,2.3,13.5c0,4.8-0.8,9.3-2.3,13.5
			c-1.5,4.1-3.7,7.7-6.6,10.8c-2.8,3-6.1,5.4-9.9,7C607.9,333.7,603.8,334.5,599.3,334.5z M599.3,321.8c2.6,0,4.9-0.5,7-1.5
			c2.1-1,4-2.5,5.7-4.4c1.6-1.9,2.9-4.1,3.8-6.6c0.9-2.5,1.3-5.3,1.3-8.4c0-3.1-0.4-5.9-1.3-8.4c-0.9-2.5-2.2-4.7-3.8-6.6
			c-1.6-1.9-3.5-3.4-5.7-4.4c-2.1-1-4.5-1.5-7-1.5c-2.6,0-4.9,0.5-7.1,1.5c-2.2,1-4.1,2.5-5.7,4.4c-1.6,1.9-2.8,4.1-3.7,6.6
			c-0.9,2.5-1.3,5.3-1.3,8.4c0,3.1,0.4,5.9,1.3,8.4c0.9,2.5,2.1,4.7,3.7,6.6c1.6,1.9,3.5,3.4,5.7,4.4
			C594.3,321.2,596.7,321.8,599.3,321.8z"/>
	</g>
</g>
<g>
	<g>
		<path class="st14" d="M422.2,504.4h-15.4v-72.7h15.4V504.4z M453.2,474.6H421v-14.2h32.3V474.6z M452.1,431.7h15.3v72.7h-15.3
			V431.7z"/>
		<path class="st14" d="M475.3,504.4l29.3-72.7h15.1l29.6,72.7h-16l-24.2-64.2h6.1L491,504.4H475.3z M490.1,488.8L494,476h34.2
			l4,12.8H490.1z"/>
		<path class="st14" d="M557.2,504.4v-72.7h28.6c5.9,0,11,1.1,15.3,3.2c4.3,2.1,7.6,5.1,9.9,9.1c2.3,3.9,3.5,8.6,3.5,14
			c0,5.5-1.2,10.2-3.5,14.1c-2.3,3.9-5.6,6.9-9.9,8.9c-4.3,2-9.4,3.1-15.3,3.1h-20.2l7-7.3v27.6H557.2z M572.6,478.6l-7-8H585
			c4.7,0,8.2-1.1,10.6-3.3c2.4-2.2,3.6-5.3,3.6-9.3c0-4-1.2-7.1-3.6-9.3c-2.4-2.2-5.9-3.3-10.6-3.3h-19.3l7-8V478.6z M599.3,504.4
			L582.7,478h16.4l16.6,26.4H599.3z"/>
		<path class="st14" d="M642.9,504.4h-15.4v-72.7h49.9v13.5h-34.5V504.4z M641.7,464.4h31.7v13.5h-31.7V464.4z"/>
	</g>
</g>
</svg>
