<?xml version="1.0" encoding="utf-8"?>
<!-- Generator: Adobe Illustrator 26.0.1, SVG Export Plug-In . SVG Version: 6.00 Build 0)  -->
<svg version="1.1" id="Camada_1" xmlns="http://www.w3.org/2000/svg" xmlns:xlink="http://www.w3.org/1999/xlink" x="0px" y="0px"
	 viewBox="0 0 789.2 836.8" style="enable-background:new 0 0 789.2 836.8;" xml:space="preserve">
<style type="text/css">
	.st0{fill:#FF9893;}
	.st1{fill:#FFFFFF;}
	.st2{clip-path:url(#SVGID_00000029039040602303003740000004083506583350613690_);}
	.st3{fill:#383D47;}
	.st4{fill:#666666;}
	.st5{fill:url(#SVGID_00000118395402732301593500000009536504053803458207_);}
	.st6{fill:url(#SVGID_00000040543597322133592910000017696200697145309578_);}
</style>
<g id="GENERO">
	<path class="st0" d="M0,442.2c0,217.9,176.7,394.7,394.6,394.7s394.6-176.8,394.6-394.7S612.5,47.6,394.6,47.6S0,224.4,0,442.2z"/>
	<path class="st1" d="M28.6,442.2c0,202.1,163.9,366,366,366s366-163.9,366-366s-163.9-366-366-366S28.6,240.1,28.6,442.2z"/>
	<g>
		<defs>
			<path id="SVGID_1_" d="M101.1,223.6c-47.2,63.1-72.6,139.8-72.5,218.6c0,202.1,163.9,366,366,366s366-163.9,366-366
				c0.1-77-24.2-152.1-69.4-214.4C677.7,98.6,517.8-14.5,395.7-14.5C275.6-14.5,113.8,18.6,101.1,223.6z"/>
		</defs>
		<clipPath id="SVGID_00000064339564705087986460000000658414479132339379_">
			<use xlink:href="#SVGID_1_"  style="overflow:visible;"/>
		</clipPath>
		<g style="clip-path:url(#SVGID_00000064339564705087986460000000658414479132339379_);">
			<path class="st3" d="M136.6,521.7c45.7-173.1-82.6-296.6,35.5-437.1C287.6-52.7,488.4-3.4,521.1,95c0,0,98.9-15.8,130.2,188.6
				c15.3,99.8-12.5,210.8,24,285.6c61.3,129.9,133.7,147.5,86.2,206.6c-39.3,48.9-436,32.4-574.6,24.2
				C84.9,757.8,105.6,639.4,136.6,521.7z"/>
			<path class="st4" d="M165.3,787.6c34.9-98.7,128.9-169.5,239.7-169.9v0.2h1v-0.2c110,0.4,203.9,71.2,238.8,169.9
				c3.6,10.1,1.9,31.3-24.2,31.3H189.7C163.6,818.8,161.8,797.6,165.3,787.6z"/>
			
				<linearGradient id="SVGID_00000045610201014769157500000012341740300958877863_" gradientUnits="userSpaceOnUse" x1="485.69" y1="63.59" x2="485.69" y2="154.59" gradientTransform="matrix(1 0 0 -1 -102.74 722.36)">
				<stop  offset="0" style="stop-color:#FAB98F"/>
				<stop  offset="1" style="stop-color:#FE9E5E"/>
			</linearGradient>
			<path style="fill:url(#SVGID_00000045610201014769157500000012341740300958877863_);" d="M444.9,543c0,0-5.6,67.4,7.4,99.2
				c0,0-97.4,84.4-138.7,30c0,0,18.1-41.1,12.8-86.1S444.9,543,444.9,543z"/>
			
				<linearGradient id="SVGID_00000127008375379902988850000002594101820368152454_" gradientUnits="userSpaceOnUse" x1="379.5633" y1="225.8192" x2="568.8433" y2="570.5892" gradientTransform="matrix(1 0 0 -1 -102.74 722.36)">
				<stop  offset="0" style="stop-color:#FAB98F"/>
				<stop  offset="1" style="stop-color:#FE9E5E"/>
			</linearGradient>
			<path style="fill:url(#SVGID_00000127008375379902988850000002594101820368152454_);" d="M202.4,248
				c124.2,22.5,259-59.2,259-59.2s26.7,170.2,68.8,231.1c-37.3,91.5-120.5,173-196.3,168.4c-81.9-5-143.5-116.9-147-263.5
				c-0.7-27.9,4.1-66.5,13.1-77.1C200.9,247.8,201.5,248,202.4,248z"/>
		</g>
	</g>
</g>
</svg>
