<?xml version="1.0" encoding="utf-8"?>
<!-- Generator: Adobe Illustrator 26.0.1, SVG Export Plug-In . SVG Version: 6.00 Build 0)  -->
<svg version="1.1" id="Camada_1" xmlns="http://www.w3.org/2000/svg" xmlns:xlink="http://www.w3.org/1999/xlink" x="0px" y="0px"
	 viewBox="0 0 54.8 51.1" style="enable-background:new 0 0 54.8 51.1;" xml:space="preserve">
<style type="text/css">
	.st0{fill:#D3562C;}
</style>
<g id="_x37__1_">
	<g>
		<path class="st0" d="M19.6,35.7c-0.3,0-0.5-0.1-0.7-0.3l-6.2-4.9c-0.3-0.2-0.5-0.6-0.5-0.9c0-0.4,0.2-0.7,0.5-0.9l6.2-4.9
			c0.5-0.4,1.3-0.3,1.7,0.2c0.4,0.5,0.3,1.3-0.2,1.7l-5,3.9l5,3.9c0.5,0.4,0.6,1.1,0.2,1.7C20.3,35.6,20,35.7,19.6,35.7z"/>
	</g>
	<g>
		<path class="st0" d="M35.4,35.7c-0.3,0-0.7-0.2-0.9-0.5c-0.4-0.5-0.3-1.3,0.2-1.7l5-3.9l-5-3.9c-0.5-0.4-0.6-1.1-0.2-1.7
			c0.4-0.5,1.1-0.6,1.7-0.2l6.2,4.9c0.3,0.2,0.5,0.6,0.5,0.9c0,0.4-0.2,0.7-0.5,0.9l-6.2,4.9C36,35.7,35.7,35.7,35.4,35.7z"/>
	</g>
	<g>
		<path class="st0" d="M25.7,39.3c-0.1,0-0.2,0-0.3,0c-0.6-0.1-1-0.8-0.9-1.4L28.3,21c0.1-0.6,0.8-1,1.4-0.9c0.6,0.1,1,0.8,0.9,1.4
			l-3.7,16.8C26.7,38.9,26.2,39.3,25.7,39.3z"/>
	</g>
	<g>
		<path class="st0" d="M51.9,2.2H3.1c-0.5,0-1,0.4-1,1v5.8c0,0.1,0,0.1,0,0.2c0.1,0.5,0.5,0.8,1,0.8h48.8c0.5,0,0.9-0.4,1-0.8
			c0-0.1,0-0.1,0-0.2V3.1C52.9,2.6,52.5,2.2,51.9,2.2z M17.3,6.1c0,0.7-0.6,1.3-1.3,1.3c-0.7,0-1.3-0.6-1.3-1.3s0.6-1.3,1.3-1.3
			C16.7,4.8,17.3,5.4,17.3,6.1z M13.1,6.1c0,0.7-0.6,1.3-1.3,1.3c-0.7,0-1.3-0.6-1.3-1.3s0.6-1.3,1.3-1.3
			C12.5,4.8,13.1,5.4,13.1,6.1z M7.5,4.8c0.7,0,1.3,0.6,1.3,1.3S8.3,7.4,7.5,7.4S6.2,6.8,6.2,6.1S6.8,4.8,7.5,4.8z"/>
	</g>
	<g>
		<path class="st0" d="M50.5,1h-46C2.6,1,1,2.6,1,4.5v42.1c0,2,1.6,3.6,3.6,3.6h46c2,0,3.6-1.6,3.6-3.6V4.5C54.1,2.6,52.5,1,50.5,1z
			 M51.7,46.7c0,0.7-0.5,1.2-1.2,1.2h-46c-0.7,0-1.2-0.5-1.2-1.2V4.5c0-0.7,0.5-1.2,1.2-1.2h46c0.7,0,1.2,0.5,1.2,1.2V46.7z"/>
	</g>
	<g>
		<path class="st0" d="M52.9,10.7H2.2c-0.5,0-0.8-0.4-0.8-0.8s0.4-0.8,0.8-0.8h50.7c0.5,0,0.8,0.4,0.8,0.8S53.3,10.7,52.9,10.7z"/>
	</g>
</g>
</svg>
