<?xml version="1.0" encoding="utf-8"?>
<svg version="1.1" id="Camada_1" xmlns="http://www.w3.org/2000/svg" xmlns:xlink="http://www.w3.org/1999/xlink" x="0px" y="0px"
	 viewBox="0 0 26.5 17.4" style="enable-background:new 0 0 26.5 17.4;" fill='#7214c9' xml:space="preserve">
<path d="M25.9,13.4c-0.1,0.6-0.3,1.1-0.5,1.7c-0.2,0.7-0.6,1.3-1.2,1.7c-0.2,0.1-0.4,0.2-0.7,0.3c0-0.5,0-1,0-1.4
	c0-1.3-0.1-2.7-0.3-4c-0.2-1.2-0.5-2.3-1.1-3.3c-0.3-0.5-0.6-0.9-1.2-1.3c0.7,1,1.1,2.1,1,3.3c-0.5-0.8-0.9-1.7-1.4-2.5
	c0,0-0.1,0-0.1,0c0.2,0.9,0.4,1.8-0.1,2.7c-0.2-1.3-0.6-2.5-1.3-3.6c-0.6,0.9-1.2,1.7-2.1,2.4c0.1-0.9-0.1-1.7-0.4-2.5
	c-0.7,1.7-1.3,3.4-2.5,4.7c0,0,0,0-0.1,0c0.1-0.6,0.2-1.2,0.3-1.8c-0.6,0.8-1.1,1.8-2,2.3c-0.1,0.1-0.2,0.1-0.4,0.1
	c0-0.3,0.1-0.6,0.1-0.8c0-0.1-0.1-0.2-0.1-0.3c-0.1,0-0.2,0.1-0.2,0.1c-0.7,0.4-1.4,0.8-2.2,1c-0.1,0-0.1,0-0.2,0
	c-0.1,0-0.2,0-0.3,0c0.8-0.8,1.3-1.8,1.9-2.8c-1.4,0.9-2.7,2.1-4.4,2.5c0.6-0.4,1.1-0.8,1.5-1.5c-0.1,0.1-0.2,0.1-0.3,0.1
	c-0.9,0.3-1.7,0.7-2.6,1c-0.4,0.1-0.8,0.2-1.2-0.1c-0.2-0.1-0.4-0.1-0.6,0C3,11.7,2.7,12,2.7,12.4c-0.2,1-0.3,3.3-0.1,4.6
	c-0.1,0-0.1,0-0.2-0.1c-0.6-0.4-1-0.9-1.2-1.6c-0.1-0.3-0.1-0.5,0.2-0.8c-0.3-0.4-0.6-0.8-0.7-1.4c0-0.2-0.1-0.5,0-0.7
	c0-0.4,0.3-0.6,0.7-0.6c-0.2-0.4-0.4-0.7-0.5-1C0.4,10,0.5,9.3,1.3,8.6c0.2-0.1,0.3-0.3,0.5-0.4C1.5,8,1.3,7.9,1,7.8
	c0.2-0.5,0.7-0.8,1.1-1.1c0.6-0.3,1-0.8,1.4-1.4c0.4-0.6,0.8-1.1,1.3-1.6c0.3-0.3,0.6-0.5,1-0.6c0,0,0.1,0,0.1-0.1
	c1-1,2.3-1.5,3.6-2c0.6-0.2,1.2-0.6,1.9-0.6c1-0.1,2-0.1,3-0.1c1.2,0,2.3,0.2,3.5,0.3c1,0.1,1.9,0.5,2.7,1.1c0.7,0.5,1.3,1.1,2,1.6
	c0.2,0.2,0.4,0.5,0.6,0.8c0,0.1,0.1,0.1,0.1,0.1c1,0.9,1.7,1.9,2.2,3.1c0.3,0.6,0.2,1.3,0.1,2c-0.1,0.5-0.1,1-0.2,1.5
	c0,0.4,0.1,0.8,0.3,1.2c0.1,0.2,0.2,0.5,0.3,0.7C25.9,12.9,25.9,13.2,25.9,13.4z"/>
</svg>
