<!--?xml version="1.0" encoding="utf-8"?-->
<!-- Generator: Adobe Illustrator 26.0.1, SVG Export Plug-In . SVG Version: 6.00 Build 0)  -->
<svg version="1.1" id="CAMADA_1" xmlns="http://www.w3.org/2000/svg" xmlns:xlink="http://www.w3.org/1999/xlink" x="0px" y="0px" viewBox="0 0 973.5 84.3" style="" xml:space="preserve">
<style type="text/css">
	.st0{fill:none;stroke:#1287FF;stroke-width:8;stroke-miterlimit:10;}
	.st1{fill:none;stroke:#B3B3B3;stroke-width:8;stroke-miterlimit:10;}
	.st2{fill:#FFFFFF;stroke:#808080;stroke-width:6;stroke-miterlimit:10;}
	.st3{enable-background:new    ;}
	.st4{fill:#595257;}
</style>
<path class="st0 EnqohVqO_0" d="M197,27.1L0,27.1"></path>
<path class="st1 EnqohVqO_1" d="M973.5,27.1L197,27.1"></path>
<path class="st2 EnqohVqO_2" d="M464.1,26.9A23.9,23.9 0,1,1 511.9,26.9A23.9,23.9 0,1,1 464.1,26.9"></path>
<path class="st2 EnqohVqO_3" d="M767.1,26.9A23.9,23.9 0,1,1 814.9,26.9A23.9,23.9 0,1,1 767.1,26.9"></path>
<path class="st2 EnqohVqO_4" d="M173.1,26.9A23.9,23.9 0,1,1 220.9,26.9A23.9,23.9 0,1,1 173.1,26.9"></path>
<g>
	<g class="st3">
		<path class="st4 EnqohVqO_5" d="M147.6,73.5v-9.8h3.7c0.8,0,1.5,0.1,2.1,0.4c0.6,0.3,1.1,0.6,1.4,1.1c0.3,0.5,0.5,1.1,0.5,1.8
			c0,0.7-0.2,1.3-0.5,1.8c-0.3,0.5-0.8,0.9-1.4,1.2c-0.6,0.3-1.3,0.4-2.1,0.4h-3.1l0.5-0.5v3.6H147.6z M148.6,70l-0.5-0.5h3.1
			c1,0,1.7-0.2,2.2-0.6c0.5-0.4,0.8-1,0.8-1.8c0-0.8-0.3-1.4-0.8-1.8c-0.5-0.4-1.3-0.6-2.2-0.6h-3.1l0.5-0.5V70z"></path>
	</g>
</g>
<g>
	<g class="st3">
		<path class="st4 EnqohVqO_6" d="M159.7,72.7h5.9v0.9h-6.9v-9.8h6.7v0.9h-5.7V72.7z M159.6,68.1h5.2V69h-5.2V68.1z"></path>
		<path class="st4 EnqohVqO_7" d="M169.2,73.5v-9.8h3.7c0.8,0,1.5,0.1,2.1,0.4c0.6,0.3,1.1,0.6,1.4,1.1c0.3,0.5,0.5,1.1,0.5,1.8
			c0,0.7-0.2,1.3-0.5,1.8c-0.3,0.5-0.8,0.9-1.4,1.1c-0.6,0.3-1.3,0.4-2.1,0.4h-3.1l0.5-0.5v3.6H169.2z M170.2,70l-0.5-0.5h3.1
			c1,0,1.7-0.2,2.2-0.6c0.5-0.4,0.8-1,0.8-1.8c0-0.8-0.3-1.4-0.8-1.8c-0.5-0.4-1.3-0.6-2.2-0.6h-3.1l0.5-0.5V70z M175.9,73.5
			l-2.5-3.6h1.1l2.5,3.6H175.9z"></path>
		<path class="st4 EnqohVqO_8" d="M184.7,73.6c-0.7,0-1.4-0.1-2.1-0.4s-1.2-0.6-1.6-1s-0.8-1-1.1-1.6s-0.4-1.3-0.4-2c0-0.7,0.1-1.4,0.4-2
			s0.6-1.1,1.1-1.6c0.5-0.4,1-0.8,1.6-1c0.6-0.2,1.3-0.4,2.1-0.4c0.7,0,1.4,0.1,2.1,0.3s1.2,0.6,1.6,1.1l-0.6,0.7
			c-0.4-0.4-0.9-0.7-1.4-0.9c-0.5-0.2-1-0.3-1.6-0.3c-0.6,0-1.2,0.1-1.7,0.3c-0.5,0.2-1,0.5-1.3,0.9c-0.4,0.4-0.7,0.8-0.9,1.3
			c-0.2,0.5-0.3,1-0.3,1.6c0,0.6,0.1,1.1,0.3,1.6c0.2,0.5,0.5,0.9,0.9,1.3c0.4,0.4,0.8,0.7,1.3,0.9c0.5,0.2,1.1,0.3,1.7,0.3
			c0.6,0,1.1-0.1,1.6-0.3s1-0.5,1.4-0.9l0.6,0.8c-0.5,0.4-1,0.7-1.6,0.9C186,73.5,185.4,73.6,184.7,73.6z M187.3,72.3v-3.6h1v3.7
			L187.3,72.3z"></path>
		<path class="st4 EnqohVqO_9" d="M196.3,73.6c-1.3,0-2.2-0.4-3-1.1s-1.1-1.8-1.1-3.2v-5.6h1v5.6c0,1.2,0.3,2,0.8,2.6c0.5,0.6,1.3,0.8,2.2,0.8
			c1,0,1.7-0.3,2.2-0.8c0.5-0.6,0.8-1.4,0.8-2.6v-5.6h1v5.6c0,1.4-0.4,2.5-1.1,3.2C198.5,73.3,197.5,73.6,196.3,73.6z"></path>
		<path class="st4 EnqohVqO_10" d="M204.6,73.5v-9.8h0.9l6.8,8.5h-0.4v-8.5h1v9.8h-0.9l-6.7-8.5h0.4v8.5H204.6z"></path>
	</g>
</g>
<g>
	<g class="st3">
		<path class="st4 EnqohVqO_11" d="M219,73.5v-8.9h-3.4v-0.9h7.9v0.9H220v8.9H219z"></path>
	</g>
</g>
<g>
	<g class="st3">
		<path class="st4 EnqohVqO_12" d="M224.4,73.5l4.5-9.8h1l4.5,9.8h-1.1l-4.1-9.2h0.4l-4.1,9.2H224.4z M226.1,70.9l0.3-0.8h5.7l0.3,0.8H226.1z"></path>
		<path class="st4 EnqohVqO_13" d="M242.7,73.5v-9.4l0.4,0.5h-2.8v-0.9h3.3v9.8H242.7z"></path>
	</g>
</g>
<g>
	<g class="st3">
		<path class="st4 EnqohVqO_14" d="M440.2,73.5v-9.8h3.7c0.8,0,1.5,0.1,2.1,0.4c0.6,0.3,1.1,0.6,1.4,1.1c0.3,0.5,0.5,1.1,0.5,1.8
			c0,0.7-0.2,1.3-0.5,1.8c-0.3,0.5-0.8,0.9-1.4,1.2c-0.6,0.3-1.3,0.4-2.1,0.4h-3.1l0.5-0.5v3.6H440.2z M441.2,70l-0.5-0.5h3.1
			c1,0,1.7-0.2,2.2-0.6c0.5-0.4,0.8-1,0.8-1.8c0-0.8-0.3-1.4-0.8-1.8c-0.5-0.4-1.3-0.6-2.2-0.6h-3.1l0.5-0.5V70z"></path>
	</g>
</g>
<g>
	<g class="st3">
		<path class="st4 EnqohVqO_15" d="M452.3,72.7h5.9v0.9h-6.9v-9.8h6.7v0.9h-5.7V72.7z M452.2,68.1h5.2V69h-5.2V68.1z"></path>
		<path class="st4 EnqohVqO_16" d="M461.7,73.5v-9.8h3.7c0.8,0,1.5,0.1,2.1,0.4c0.6,0.3,1.1,0.6,1.4,1.1c0.3,0.5,0.5,1.1,0.5,1.8
			c0,0.7-0.2,1.3-0.5,1.8c-0.3,0.5-0.8,0.9-1.4,1.1c-0.6,0.3-1.3,0.4-2.1,0.4h-3.1l0.5-0.5v3.6H461.7z M462.8,70l-0.5-0.5h3.1
			c1,0,1.7-0.2,2.2-0.6c0.5-0.4,0.8-1,0.8-1.8c0-0.8-0.3-1.4-0.8-1.8c-0.5-0.4-1.3-0.6-2.2-0.6h-3.1l0.5-0.5V70z M468.4,73.5
			l-2.5-3.6h1.1l2.5,3.6H468.4z"></path>
		<path class="st4 EnqohVqO_17" d="M477.3,73.6c-0.7,0-1.4-0.1-2.1-0.4s-1.2-0.6-1.6-1s-0.8-1-1.1-1.6s-0.4-1.3-0.4-2c0-0.7,0.1-1.4,0.4-2
			s0.6-1.1,1.1-1.6c0.5-0.4,1-0.8,1.6-1c0.6-0.2,1.3-0.4,2.1-0.4c0.7,0,1.4,0.1,2.1,0.3s1.2,0.6,1.6,1.1l-0.6,0.7
			c-0.4-0.4-0.9-0.7-1.4-0.9c-0.5-0.2-1-0.3-1.6-0.3c-0.6,0-1.2,0.1-1.7,0.3c-0.5,0.2-1,0.5-1.3,0.9c-0.4,0.4-0.7,0.8-0.9,1.3
			c-0.2,0.5-0.3,1-0.3,1.6c0,0.6,0.1,1.1,0.3,1.6c0.2,0.5,0.5,0.9,0.9,1.3c0.4,0.4,0.8,0.7,1.3,0.9c0.5,0.2,1.1,0.3,1.7,0.3
			c0.6,0,1.1-0.1,1.6-0.3s1-0.5,1.4-0.9l0.6,0.8c-0.5,0.4-1,0.7-1.6,0.9C478.6,73.5,478,73.6,477.3,73.6z M479.9,72.3v-3.6h1v3.7
			L479.9,72.3z"></path>
		<path class="st4 EnqohVqO_18" d="M488.9,73.6c-1.3,0-2.2-0.4-3-1.1s-1.1-1.8-1.1-3.2v-5.6h1v5.6c0,1.2,0.3,2,0.8,2.6s1.3,0.8,2.2,0.8
			c1,0,1.7-0.3,2.2-0.8s0.8-1.4,0.8-2.6v-5.6h1v5.6c0,1.4-0.4,2.5-1.1,3.2C491.1,73.3,490.1,73.6,488.9,73.6z"></path>
		<path class="st4 EnqohVqO_19" d="M497.1,73.5v-9.8h0.9l6.8,8.5h-0.4v-8.5h1v9.8h-0.9l-6.7-8.5h0.4v8.5H497.1z"></path>
	</g>
</g>
<g>
	<g class="st3">
		<path class="st4 EnqohVqO_20" d="M511.6,73.5v-8.9h-3.4v-0.9h7.9v0.9h-3.4v8.9H511.6z"></path>
	</g>
</g>
<g>
	<g class="st3">
		<path class="st4 EnqohVqO_21" d="M516.9,73.5l4.5-9.8h1l4.5,9.8h-1.1l-4.1-9.2h0.4l-4.1,9.2H516.9z M518.7,70.9l0.3-0.8h5.7l0.3,0.8H518.7z"></path>
		<path class="st4 EnqohVqO_22" d="M533.4,73.5v-0.7l4.1-4c0.4-0.4,0.7-0.7,0.8-1s0.3-0.5,0.4-0.8c0.1-0.2,0.1-0.5,0.1-0.7c0-0.6-0.2-1-0.6-1.3
			c-0.4-0.3-1-0.5-1.7-0.5c-0.6,0-1.1,0.1-1.5,0.3c-0.4,0.2-0.8,0.5-1.1,0.8l-0.7-0.6c0.4-0.4,0.9-0.8,1.5-1c0.6-0.2,1.3-0.4,2-0.4
			c0.7,0,1.2,0.1,1.7,0.3s0.9,0.5,1.1,0.9c0.3,0.4,0.4,0.9,0.4,1.4c0,0.3,0,0.6-0.1,0.9c-0.1,0.3-0.2,0.6-0.5,1s-0.6,0.7-1,1.2
			l-3.7,3.7l-0.3-0.4h6.1v0.9H533.4z"></path>
	</g>
</g>
<g>
	<g class="st3">
		<path class="st4 EnqohVqO_23" d="M772.7,73.5h-1v-9.8h6.7v0.9h-5.7V73.5z M772.6,68.5h5.2v0.9h-5.2V68.5z"></path>
		<path class="st4 EnqohVqO_24" d="M781.6,73.5v-9.8h1v9.8H781.6z"></path>
		<path class="st4 EnqohVqO_25" d="M787,73.5v-9.8h0.9l6.8,8.5h-0.4v-8.5h1v9.8h-0.9l-6.7-8.5h0.4v8.5H787z"></path>
		<path class="st4 EnqohVqO_26" d="M797.9,73.5l4.5-9.8h1l4.5,9.8h-1.1l-4.1-9.2h0.4l-4.1,9.2H797.9z M799.7,70.9l0.3-0.8h5.7l0.3,0.8H799.7z"></path>
		<path class="st4 EnqohVqO_27" d="M810.6,73.5v-9.8h1v8.9h5.5v0.9H810.6z"></path>
	</g>
</g>
<style data-made-with="vivus-instant">.EnqohVqO_0{stroke-dasharray:197 199;stroke-dashoffset:198;animation:EnqohVqO_draw 448ms ease-out 0ms forwards;}.EnqohVqO_1{stroke-dasharray:777 779;stroke-dashoffset:778;animation:EnqohVqO_draw 1762ms ease-out 448ms forwards;}.EnqohVqO_2{stroke-dasharray:151 153;stroke-dashoffset:152;animation:EnqohVqO_draw 344ms ease-out 2211ms forwards;}.EnqohVqO_3{stroke-dasharray:151 153;stroke-dashoffset:152;animation:EnqohVqO_draw 344ms ease-out 2555ms forwards;}.EnqohVqO_4{stroke-dasharray:151 153;stroke-dashoffset:152;animation:EnqohVqO_draw 344ms ease-out 2900ms forwards;}.EnqohVqO_5{stroke-dasharray:56 58;stroke-dashoffset:57;animation:EnqohVqO_draw 129ms ease-out 3244ms forwards;}.EnqohVqO_6{stroke-dasharray:57 59;stroke-dashoffset:58;animation:EnqohVqO_draw 131ms ease-out 3373ms forwards;}.EnqohVqO_7{stroke-dasharray:67 69;stroke-dashoffset:68;animation:EnqohVqO_draw 154ms ease-out 3505ms forwards;}.EnqohVqO_8{stroke-dasharray:56 58;stroke-dashoffset:57;animation:EnqohVqO_draw 129ms ease-out 3659ms forwards;}.EnqohVqO_9{stroke-dasharray:49 51;stroke-dashoffset:50;animation:EnqohVqO_draw 113ms ease-out 3788ms forwards;}.EnqohVqO_10{stroke-dasharray:64 66;stroke-dashoffset:65;animation:EnqohVqO_draw 147ms ease-out 3901ms forwards;}.EnqohVqO_11{stroke-dasharray:36 38;stroke-dashoffset:37;animation:EnqohVqO_draw 83ms ease-out 4049ms forwards;}.EnqohVqO_12{stroke-dasharray:60 62;stroke-dashoffset:61;animation:EnqohVqO_draw 138ms ease-out 4132ms forwards;}.EnqohVqO_13{stroke-dasharray:28 30;stroke-dashoffset:29;animation:EnqohVqO_draw 65ms ease-out 4271ms forwards;}.EnqohVqO_14{stroke-dasharray:56 58;stroke-dashoffset:57;animation:EnqohVqO_draw 129ms ease-out 4336ms forwards;}.EnqohVqO_15{stroke-dasharray:58 60;stroke-dashoffset:59;animation:EnqohVqO_draw 133ms ease-out 4466ms forwards;}.EnqohVqO_16{stroke-dasharray:67 69;stroke-dashoffset:68;animation:EnqohVqO_draw 154ms ease-out 4599ms forwards;}.EnqohVqO_17{stroke-dasharray:56 58;stroke-dashoffset:57;animation:EnqohVqO_draw 129ms ease-out 4753ms forwards;}.EnqohVqO_18{stroke-dasharray:49 51;stroke-dashoffset:50;animation:EnqohVqO_draw 113ms ease-out 4882ms forwards;}.EnqohVqO_19{stroke-dasharray:64 66;stroke-dashoffset:65;animation:EnqohVqO_draw 147ms ease-out 4996ms forwards;}.EnqohVqO_20{stroke-dasharray:36 38;stroke-dashoffset:37;animation:EnqohVqO_draw 83ms ease-out 5143ms forwards;}.EnqohVqO_21{stroke-dasharray:60 62;stroke-dashoffset:61;animation:EnqohVqO_draw 138ms ease-out 5227ms forwards;}.EnqohVqO_22{stroke-dasharray:49 51;stroke-dashoffset:50;animation:EnqohVqO_draw 113ms ease-out 5365ms forwards;}.EnqohVqO_23{stroke-dasharray:46 48;stroke-dashoffset:47;animation:EnqohVqO_draw 106ms ease-out 5478ms forwards;}.EnqohVqO_24{stroke-dasharray:22 24;stroke-dashoffset:23;animation:EnqohVqO_draw 52ms ease-out 5585ms forwards;}.EnqohVqO_25{stroke-dasharray:64 66;stroke-dashoffset:65;animation:EnqohVqO_draw 147ms ease-out 5637ms forwards;}.EnqohVqO_26{stroke-dasharray:60 62;stroke-dashoffset:61;animation:EnqohVqO_draw 138ms ease-out 5784ms forwards;}.EnqohVqO_27{stroke-dasharray:33 35;stroke-dashoffset:34;animation:EnqohVqO_draw 77ms ease-out 5922ms forwards;}@keyframes EnqohVqO_draw{100%{stroke-dashoffset:0;}}@keyframes EnqohVqO_fade{0%{stroke-opacity:1;}95.74468085106383%{stroke-opacity:1;}100%{stroke-opacity:0;}}</style></svg>
