<?xml version="1.0" encoding="utf-8"?>
<!-- Generator: Adobe Illustrator 26.0.1, SVG Export Plug-In . SVG Version: 6.00 Build 0)  -->
<svg version="1.1" id="Camada_1" xmlns="http://www.w3.org/2000/svg" xmlns:xlink="http://www.w3.org/1999/xlink" x="0px" y="0px"
	 viewBox="0 0 1500.2 666.8" style="enable-background:new 0 0 1500.2 666.8;" xml:space="preserve">
<style type="text/css">
	.st0{clip-path:url(#SVGID_00000176732266719043698450000008325591508811323520_);}
	.st1{clip-path:url(#SVGID_00000183947093526173277670000018200129001171175345_);}
	.st2{fill:#E3674B;}
	.st3{fill:none;stroke:#E3674B;stroke-width:2;stroke-miterlimit:10;}
	.st4{fill:#665A66;stroke:#665A66;stroke-miterlimit:10;}
	.st5{clip-path:url(#SVGID_00000042013167851292614890000000626736491535283351_);}
	.st6{fill:url(#SVGID_00000173873691941473651820000004660408965969984904_);}
	.st7{clip-path:url(#SVGID_00000065765644036661444170000010285034394071160983_);}
	.st8{fill:url(#SVGID_00000122698707671545681360000009091224896903276929_);}
	.st9{enable-background:new    ;}
	.st10{fill:#665A66;}
	.st11{clip-path:url(#SVGID_00000141429787900043736430000014286205486657891763_);}
	.st12{fill:#665A66;stroke:#FFFFFF;stroke-miterlimit:10;}
</style>
<g>
	<g>
		<defs>
			<rect id="SVGID_1_" x="339.9" y="-103" width="806.6" height="806.6"/>
		</defs>
		<clipPath id="SVGID_00000010285858881286868010000004486356673042765458_">
			<use xlink:href="#SVGID_1_"  style="overflow:visible;"/>
		</clipPath>
		<g style="clip-path:url(#SVGID_00000010285858881286868010000004486356673042765458_);">
			<g>
				<g>
					<defs>
						<rect id="SVGID_00000160166362824057160970000014891009838351557309_" x="339.9" y="-103" width="806.6" height="806.6"/>
					</defs>
					<clipPath id="SVGID_00000005962273906512229470000012465144704374763185_">
						<use xlink:href="#SVGID_00000160166362824057160970000014891009838351557309_"  style="overflow:visible;"/>
					</clipPath>
					<g style="clip-path:url(#SVGID_00000005962273906512229470000012465144704374763185_);">
						<path class="st2" d="M380.2,296.3h31.2c1.1,0,1.9,0.9,1.9,1.9l0,0v52.5c0,1,0.8,1.9,1.9,1.9l0,0h46.7c1,0,1.9-0.9,1.9-1.9l0,0
							v-52.5c0-1.1,0.9-1.9,1.9-1.9l0,0h31.2c1,0,1.9,0.8,1.9,1.9l0,0v138.5c0,1-0.8,1.9-1.9,1.9l0,0h-31.2c-1.1,0-1.9-0.9-1.9-1.9
							l0,0v-53.5c0-1-0.9-1.9-1.9-1.9h-46.7c-1,0-1.9,0.8-1.9,1.9l0,0v53.5c0,1.1-0.9,1.9-1.9,1.9l0,0h-31.2c-1.1,0-1.9-0.9-1.9-1.9
							l0,0V298.2C378.2,297.2,379,296.3,380.2,296.3L380.2,296.3"/>
						<path class="st3" d="M380.2,296.3h31.2c1.1,0,1.9,0.9,1.9,1.9l0,0v52.5c0,1,0.8,1.9,1.9,1.9l0,0h46.7c1,0,1.9-0.9,1.9-1.9l0,0
							v-52.5c0-1.1,0.9-1.9,1.9-1.9l0,0h31.2c1,0,1.9,0.8,1.9,1.9l0,0v138.5c0,1-0.8,1.9-1.9,1.9l0,0h-31.2c-1.1,0-1.9-0.9-1.9-1.9
							l0,0v-53.5c0-1-0.9-1.9-1.9-1.9h-46.7c-1,0-1.9,0.8-1.9,1.9l0,0v53.5c0,1.1-0.9,1.9-1.9,1.9l0,0h-31.2c-1.1,0-1.9-0.9-1.9-1.9
							l0,0V298.2C378.2,297.2,379,296.3,380.2,296.3L380.2,296.3z"/>
						<path class="st4" d="M615.8,411.9h-51.1c-0.5,0-0.9,0.3-1.1,0.8l-8,25.9c-0.1,0.5-0.6,0.8-1.1,0.8h-34.3
							c-0.6,0-1.1-0.5-1.1-1.2c0-0.1,0-0.2,0.1-0.3l49.3-140.1c0.2-0.5,0.6-0.8,1.1-0.8H614c0.5,0,0.9,0.3,1.1,0.8l49.1,140.1
							c0.2,0.6-0.1,1.2-0.7,1.4c-0.1,0-0.2,0.1-0.4,0.1h-37.2c-0.5,0-0.9-0.3-1.1-0.8l-8-25.9C616.7,412.2,616.2,411.9,615.8,411.9
							 M608.1,384.9L591.3,331c-0.2-0.6-0.8-0.9-1.4-0.7c-0.4,0.1-0.6,0.4-0.7,0.7l-16.8,53.9c-0.2,0.6,0.2,1.2,0.8,1.4
							c0.1,0,0.2,0,0.3,0h33.7c0.6,0,1.1-0.5,1.1-1.1C608.2,385.1,608.2,385,608.1,384.9"/>
						<path class="st4" d="M761.2,439.3c-0.7,0-1.3-0.4-1.7-1l-25-43.8H721c-1.1,0-1.9,0.9-1.9,1.9l0,0v41c0,1.1-0.9,1.9-1.9,1.9
							H686c-1.1,0-1.9-0.8-1.9-1.9V298.9c0-1.1,0.9-1.9,1.9-1.9h47.8c35.9,0,56.3,17.7,56.3,48.7c0,20-8.4,34.5-24,42.2
							c-0.9,0.5-1.3,1.6-0.9,2.6c0,0.1,0.1,0.2,0.1,0.2l31,45.7c0.6,0.9,0.4,2.1-0.5,2.7c-0.3,0.2-0.7,0.3-1.1,0.3L761.2,439.3z
							 M719.2,364c0,1,0.8,1.9,1.9,1.9l0,0h12.1c13.2,0,21-7.4,21-20.2c0-12.6-7.8-20-21-20h-12.1c-1,0-1.9,0.8-1.9,1.9l0,0V364z"/>
					</g>
				</g>
			</g>
			<g>
				<g>
					<defs>
						<path id="SVGID_00000021814457531097449530000016928026705929186471_" d="M1069.8,75.5c-25.6,40.5-157.5,249.3-157.1,249.8
							l-0.6,1.1c-0.4,0.7-0.1,1.5,0.6,1.9c0.2,0.1,0.4,0.2,0.7,0.2l70.4,0.8c0.9,0,1.6,0.8,1.6,1.7c0,0.1,0,0.1,0,0.2L956,514.9
							c-0.1,0.8,0.4,1.5,1.2,1.6c0.5,0.1,1.1-0.2,1.4-0.6l150.8-226.1c0.1-0.2,0.1-0.4-0.1-0.5c-0.1,0-0.1-0.1-0.2-0.1l-78.4-1.3
							c-1.7,0-3.1-1.4-3.1-3.1c0-0.2,0-0.4,0.1-0.6l45-207.7c0.2-0.8-0.3-1.5-1.1-1.7c-0.1,0-0.2,0-0.3,0
							C1070.6,74.8,1070.2,75.1,1069.8,75.5"/>
					</defs>
					<clipPath id="SVGID_00000166652543396714229830000008023748667020194698_">
						<use xlink:href="#SVGID_00000021814457531097449530000016928026705929186471_"  style="overflow:visible;"/>
					</clipPath>
					<g style="clip-path:url(#SVGID_00000166652543396714229830000008023748667020194698_);">
						
							<linearGradient id="SVGID_00000178164506810578945550000011715548706141971131_" gradientUnits="userSpaceOnUse" x1="904.0753" y1="-196.9952" x2="904.8853" y2="-196.9952" gradientTransform="matrix(-247.36 0 0 247.36 224741.3125 49024.6367)">
							<stop  offset="0" style="stop-color:#EE3B2C"/>
							<stop  offset="8.000000e-02" style="stop-color:#EE3B2C"/>
							<stop  offset="0.34" style="stop-color:#EF4E2D"/>
							<stop  offset="1" style="stop-color:#F37C5D"/>
						</linearGradient>
						
							<rect x="911.6" y="74.8" style="fill:url(#SVGID_00000178164506810578945550000011715548706141971131_);" width="197.7" height="442.3"/>
					</g>
				</g>
			</g>
			<g>
				<g>
					<defs>
						<path id="SVGID_00000121274899660449465960000012865287520521826947_" d="M378.9,459.4c-1,0-1.9,0.9-1.9,1.9v12.9
							c0,1,0.8,1.9,1.9,1.9l0,0h545.5c1,0,1.9-0.9,1.9-1.9l0,0v-12.9c0-1-0.8-1.9-1.9-1.9H378.9z"/>
					</defs>
					<clipPath id="SVGID_00000158725239936537390310000000255224287619673476_">
						<use xlink:href="#SVGID_00000121274899660449465960000012865287520521826947_"  style="overflow:visible;"/>
					</clipPath>
					<g style="clip-path:url(#SVGID_00000158725239936537390310000000255224287619673476_);">
						
							<linearGradient id="SVGID_00000051343582327645215480000006743572459206079113_" gradientUnits="userSpaceOnUse" x1="898.7794" y1="-201.0298" x2="899.5794" y2="-201.0298" gradientTransform="matrix(680.98 0 0 -680.98 -611672.4375 -136429.5469)">
							<stop  offset="0" style="stop-color:#E3674B"/>
							<stop  offset="0.98" style="stop-color:#ED372D"/>
							<stop  offset="1" style="stop-color:#ED372D"/>
						</linearGradient>
						
							<rect x="377" y="459.4" style="fill:url(#SVGID_00000051343582327645215480000006743572459206079113_);" width="549.3" height="16.8"/>
					</g>
				</g>
			</g>
			<g class="st9">
				<path class="st10" d="M406,268.7l-30.3-127H402l19.1,87.3l23.2-87.3h30.5l22.3,88.7l19.5-88.7h25.8l-30.8,127h-27.2l-25.3-95
					l-25.2,95H406z"/>
			</g>
			<g class="st9">
				<path class="st10" d="M562.8,206c0-12.9,1.9-23.8,5.8-32.6c2.9-6.5,6.8-12.3,11.8-17.4c5-5.1,10.5-9,16.4-11.4
					c7.9-3.3,17-5,27.4-5c18.7,0,33.7,5.8,44.9,17.4c11.2,11.6,16.9,27.8,16.9,48.4c0,20.5-5.6,36.6-16.7,48.1
					c-11.1,11.6-26.1,17.4-44.7,17.4c-18.9,0-33.9-5.8-45.1-17.3C568.4,242.1,562.8,226.2,562.8,206z M589.2,205.1
					c0,14.4,3.3,25.3,10,32.7c6.6,7.4,15.1,11.1,25.3,11.1s18.6-3.7,25.2-11c6.6-7.4,9.8-18.4,9.8-33.1c0-14.6-3.2-25.4-9.6-32.6
					c-6.4-7.2-14.9-10.7-25.4-10.7s-19.1,3.6-25.6,10.9C592.5,179.6,589.2,190.5,589.2,205.1z"/>
				<path class="st10" d="M702.8,141.7h50.8c10.1,0,17.5,0.4,22.5,1.3c4.9,0.8,9.4,2.6,13.3,5.2c3.9,2.7,7.1,6.2,9.7,10.6
					c2.6,4.4,3.9,9.4,3.9,14.9c0,6-1.6,11.4-4.8,16.4s-7.6,8.7-13,11.2c7.7,2.3,13.7,6.1,17.8,11.5c4.2,5.4,6.2,11.8,6.2,19.1
					c0,5.8-1.3,11.4-4,16.9s-6.4,9.8-11,13.1c-4.7,3.3-10.4,5.3-17.2,6c-4.3,0.5-14.6,0.8-30.9,0.9h-43.2L702.8,141.7L702.8,141.7z
					 M728.4,162.9v29.4h16.8c10,0,16.2-0.1,18.6-0.4c4.4-0.5,7.8-2,10.4-4.5s3.8-5.8,3.8-9.9c0-3.9-1.1-7.1-3.2-9.6
					c-2.2-2.5-5.4-3.9-9.7-4.5c-2.5-0.3-9.8-0.4-21.9-0.4h-14.8V162.9z M728.4,213.4v34h23.7c9.2,0,15.1-0.3,17.6-0.8
					c3.8-0.7,6.9-2.4,9.3-5.1c2.4-2.7,3.6-6.3,3.6-10.8c0-3.8-0.9-7-2.8-9.7c-1.8-2.7-4.5-4.6-8-5.8s-11.1-1.8-22.7-1.8L728.4,213.4
					L728.4,213.4z"/>
			</g>
			<g class="st9">
				<path class="st10" d="M815.2,206c0-12.9,1.9-23.8,5.8-32.6c2.9-6.5,6.8-12.3,11.8-17.4c5-5.1,10.5-9,16.4-11.4
					c7.9-3.3,17-5,27.4-5c18.7,0,33.7,5.8,44.9,17.4c11.2,11.6,16.9,27.8,16.9,48.4c0,20.5-5.6,36.6-16.7,48.1
					c-11.1,11.6-26.1,17.4-44.7,17.4c-18.9,0-33.9-5.8-45.1-17.3C820.8,242.1,815.2,226.2,815.2,206z M841.7,205.1
					c0,14.4,3.3,25.3,10,32.7c6.6,7.4,15.1,11.1,25.3,11.1s18.6-3.7,25.2-11c6.6-7.4,9.8-18.4,9.8-33.1c0-14.6-3.2-25.4-9.6-32.6
					c-6.4-7.2-14.9-10.7-25.4-10.7s-19.1,3.6-25.6,10.9C844.9,179.6,841.7,190.5,841.7,205.1z"/>
			</g>
			<g>
				<g>
					<defs>
						<rect id="SVGID_00000155113725820540257880000009064064892745031606_" x="339.9" y="-103" width="806.6" height="806.6"/>
					</defs>
					<clipPath id="SVGID_00000018921864639063926930000001868161215130521745_">
						<use xlink:href="#SVGID_00000155113725820540257880000009064064892745031606_"  style="overflow:visible;"/>
					</clipPath>
					<g style="clip-path:url(#SVGID_00000018921864639063926930000001868161215130521745_);">
						<path class="st4" d="M556.8,142.1h-33l-14,63.7c-3.3,15.8-5.4,27-6.1,33.4c-0.7-5-1.9-12.5-3.8-22.5
							c-1.9-10-3.7-18.9-5.6-26.6l-10.9-47.9h-31.7l-11.2,47.9c-1.7,6.7-3.5,15-5.4,25.1c-1.9,10.1-3.3,18.1-4,24
							c-1.2-8.3-3.3-19.5-6.4-33.5l-13.9-63.5h-33l31.4,126.7h40.5c7.4-33.2,11.6-52.2,12.6-56.8s2.1-9.8,3.1-15.4
							c1-5.6,1.8-10.2,2.2-14c0.6,4.6,1.5,10.4,2.7,17.2c1.2,6.9,2.1,11.5,2.7,13.8l12.1,55.2h40.6L556.8,142.1z"/>
						<path class="st4" d="M625.9,168.1c8.4,0,14.8,3,19,9.1c4.2,6,6.4,15.4,6.4,28s-2.1,21.9-6.3,27.8s-10.6,8.9-19.3,8.9
							c-17,0-25.6-12.2-25.6-36.7C600.2,180.5,608.7,168.1,625.9,168.1z M671.7,156.6c-10.4-11-25.7-16.5-45.8-16.5
							c-20.2,0-35.5,5.6-46,16.7c-10.6,11.1-15.8,27.2-15.8,48.3c0,21.3,5.3,37.6,15.9,48.7c10.6,11.1,25.9,16.7,45.8,16.8
							c20.2,0,35.5-5.5,45.9-16.6c10.5-11.1,15.7-27.3,15.7-48.6C687.2,183.9,682.1,167.7,671.7,156.6z"/>
						<path class="st4" d="M751.2,215.7c5.4,0,9.6,1.1,12.4,3.4c2.9,2.3,4.3,5.5,4.3,9.7c0,9-5.3,13.5-16,13.5h-12v-26.6
							L751.2,215.7L751.2,215.7z M740,168h9.6c10.7,0,16.1,3.6,16.1,10.7c0,4-1.3,7-4,9s-6.5,3-11.4,3h-10.3L740,168z M705.8,268.7
							H755c14.9,0,26.7-3.3,35.3-9.9c8.6-6.6,13-15.7,13-27.2c0-7.7-1.8-14-5.3-18.9s-9.2-8.3-17.1-10.4v-0.8
							c5.8-1.4,10.9-4.8,14.4-9.7c3.6-5,5.5-11.1,5.5-18.2c0-10.8-4.2-18.8-12.5-23.9c-8.3-5.1-21.1-7.7-38.3-7.7h-44.2v126.7H705.8
							z"/>
						<path class="st4" d="M878,168.1c8.4,0,14.8,3,19,9.1c4.2,6,6.4,15.4,6.4,28s-2.1,21.9-6.3,27.8c-4.2,5.9-10.6,8.9-19.3,8.9
							c-17,0-25.6-12.2-25.6-36.7C852.2,180.5,860.9,168.1,878,168.1z M923.8,156.6c-10.4-11-25.7-16.5-45.8-16.5s-35.5,5.6-46,16.7
							c-10.5,11.1-15.8,27.2-15.8,48.3c0,21.3,5.3,37.6,15.9,48.7c10.6,11.1,25.9,16.7,45.8,16.8c20.2,0,35.5-5.5,45.9-16.6
							c10.5-11.1,15.7-27.3,15.7-48.6C939.4,183.9,934.2,167.7,923.8,156.6z"/>
						<path class="st12" d="M850,439.4H816c-1,0-1.9-0.8-1.9-1.9l0,0V299.7c0-1,0.8-1.9,1.9-1.9H896c1,0,1.8,0.9,1.8,1.9v26.9
							c0,1-0.8,1.9-1.9,1.9l0,0h-42.2c-1,0-1.9,0.8-1.9,1.9v23.3c0,1,0.8,1.9,1.9,1.9l0,0h38.7c1,0,1.9,0.8,1.9,1.9l0,0v26.9
							c0,1-0.8,1.9-1.9,1.9l0,0h-38.7c-1,0-1.9,0.8-1.9,1.9l0,0v49.3C851.9,438.5,851,439.4,850,439.4"/>
						<path class="st4" d="M850,439.4H816c-1,0-1.9-0.8-1.9-1.9l0,0V299.7c0-1,0.8-1.9,1.9-1.9H896c1,0,1.8,0.9,1.8,1.9v26.9
							c0,1-0.8,1.9-1.9,1.9l0,0h-42.2c-1,0-1.9,0.8-1.9,1.9v23.3c0,1,0.8,1.9,1.9,1.9l0,0h38.7c1,0,1.9,0.8,1.9,1.9l0,0v26.9
							c0,1-0.8,1.9-1.9,1.9l0,0h-38.7c-1,0-1.9,0.8-1.9,1.9l0,0v49.3C851.9,438.5,851,439.4,850,439.4z"/>
						<path class="st12" d="M904.1,327.6c-0.3,0.5-0.9,0.9-1.6,0.9l-87-0.4c-0.8,0-1.5-0.7-1.5-1.5l0,0v-28.1c0-0.8,0.6-1.5,1.5-1.5
							l0,0l104.2,0.4c1,0,1.9,0.9,1.8,1.9c0,0.3-0.1,0.7-0.3,1L904.1,327.6"/>
						<path class="st4" d="M904.1,327.6c-0.3,0.5-0.9,0.9-1.6,0.9l-87-0.4c-0.8,0-1.5-0.7-1.5-1.5l0,0v-28.1c0-0.8,0.6-1.5,1.5-1.5
							l0,0l104.2,0.4c1,0,1.9,0.9,1.8,1.9c0,0.3-0.1,0.7-0.3,1L904.1,327.6z"/>
						<path class="st12" d="M924.9,387h-77c-1,0-1.8-0.8-1.8-1.8v-28.7c0-1,0.8-1.8,1.8-1.8l0,0h77c1,0,1.8,0.8,1.8,1.8l0,0v28.6
							C926.7,386.1,925.9,387,924.9,387"/>
						<path class="st4" d="M847.9,354.7h77c1,0,1.8,0.8,1.8,1.8v28.6c0,1-0.8,1.8-1.8,1.8h-77c-1,0-1.8-0.8-1.8-1.8v-28.6
							C846.1,355.5,846.9,354.7,847.9,354.7z"/>
					</g>
				</g>
			</g>
		</g>
	</g>
</g>
</svg>
