<?xml version="1.0" encoding="utf-8"?>
<!-- Generator: Adobe Illustrator 26.0.1, SVG Export Plug-In . SVG Version: 6.00 Build 0)  -->
<svg version="1.1" id="Camada_1" xmlns="http://www.w3.org/2000/svg" xmlns:xlink="http://www.w3.org/1999/xlink" x="0px" y="0px"
	 viewBox="0 0 1500.2 666.8" style="enable-background:new 0 0 1500.2 666.8;" xml:space="preserve">
<style type="text/css">
	.st0{fill:#665A66;stroke:#665A66;stroke-width:2.0952;stroke-miterlimit:10;}
	.st1{fill:#ED6919;stroke:#ED6919;stroke-width:11.1745;stroke-miterlimit:10;}
	.st2{fill:#665A66;stroke:#665A66;stroke-width:11.1745;stroke-miterlimit:10;}
	.st3{clip-path:url(#SVGID_00000080194304104224936020000007875736585910729607_);}
	.st4{fill:url(#SVGID_00000042016799194335712870000012538206461608203162_);}
	.st5{clip-path:url(#SVGID_00000145047016826500820010000011941595751953253275_);}
	
		.st6{fill:url(#SVGID_00000180367875548366552300000001022214909938819744_);stroke:#FFFFFF;stroke-width:2.7936;stroke-miterlimit:10;}
</style>
<g>
	<g>
		<g>
			<path class="st0" d="M365.4,281.7L316.4,92.1h53.1l39.5,160.1h-26.6l41.9-160.1h47.4l39.1,160.1h-25.6l41.3-160.1h48.9
				l-48.9,189.6h-55.3l-31.9-131.1h14.9l-33.6,131.1H365.4z"/>
			<path class="st0" d="M670.1,286c-12.4,0-23.8-2.4-34.4-7.3c-10.6-4.9-19.7-11.8-27.4-20.7c-7.7-8.9-13.7-19.5-18-31.6
				c-4.3-12.1-6.4-25.3-6.4-39.5c0-14.4,2.1-27.7,6.4-39.7c4.3-12,10.3-22.5,18-31.4c7.7-8.9,16.9-15.8,27.4-20.7
				c10.6-4.9,22-7.3,34.4-7.3c12.5,0,24,2.4,34.5,7.3s19.6,11.8,27.3,20.7c7.7,8.9,13.7,19.4,18,31.4c4.3,12,6.4,25.2,6.4,39.7
				c0,14.3-2.1,27.5-6.4,39.5c-4.3,12.1-10.3,22.6-18,31.6c-7.7,8.9-16.8,15.8-27.3,20.7C694.1,283.6,682.6,286,670.1,286z
				 M670.1,234.3c4.8,0,9.3-1.1,13.4-3.3s7.8-5.3,10.9-9.3c3.1-4.1,5.6-9,7.3-14.9c1.7-5.9,2.6-12.5,2.6-19.9c0-7.4-0.9-14-2.6-19.9
				c-1.7-5.9-4.2-10.8-7.3-14.9c-3.1-4.1-6.8-7.2-10.9-9.3s-8.6-3.3-13.4-3.3c-4.8,0-9.3,1.1-13.4,3.3s-7.8,5.3-10.9,9.3
				c-3.1,4.1-5.6,9-7.3,14.9c-1.7,5.9-2.6,12.5-2.6,19.9c0,7.4,0.9,14,2.6,19.9c1.7,5.9,4.2,10.8,7.3,14.9c3.1,4.1,6.8,7.2,10.9,9.3
				S665.3,234.3,670.1,234.3z"/>
			<path class="st0" d="M774.9,281.7V92.1h81.7c21.1,0,36.7,4.7,46.7,14c10,9.3,15.1,21.2,15.1,35.6c0,9.6-2.2,18.1-6.4,25.6
				c-4.3,7.5-10.5,13.4-18.7,17.7c-8.2,4.3-18.2,6.5-30.1,6.5l4.4-14.6c11.9,0,22.2,2.1,30.9,6.2c8.7,4.2,15.4,10.2,20.1,18
				c4.7,7.9,7.1,17.3,7.1,28.3c0,16.4-5.5,29.3-16.5,38.5c-11,9.2-27.1,13.8-48.2,13.8H774.9z M825.6,237h31c5.7,0,9.9-1.3,12.8-3.8
				c2.8-2.5,4.3-6.2,4.3-11.1s-1.4-8.6-4.3-11.1c-2.8-2.5-7.1-3.8-12.8-3.8h-34.5v-42.3h27.5c5.8,0,10.1-1.2,12.8-3.7
				c2.7-2.4,4-5.9,4-10.4c0-4.7-1.3-8.2-4-10.6c-2.7-2.3-7-3.5-12.8-3.5h-24V237z"/>
			<path class="st0" d="M1023.7,286c-12.4,0-23.8-2.4-34.4-7.3c-10.6-4.9-19.7-11.8-27.4-20.7c-7.7-8.9-13.7-19.5-18-31.6
				c-4.3-12.1-6.4-25.3-6.4-39.5c0-14.4,2.1-27.7,6.4-39.7c4.3-12,10.3-22.5,18-31.4c7.7-8.9,16.9-15.8,27.4-20.7
				c10.6-4.9,22-7.3,34.4-7.3c12.5,0,24,2.4,34.5,7.3s19.6,11.8,27.3,20.7c7.7,8.9,13.7,19.4,18,31.4c4.3,12,6.4,25.2,6.4,39.7
				c0,14.3-2.1,27.5-6.4,39.5c-4.3,12.1-10.3,22.6-18,31.6c-7.7,8.9-16.8,15.8-27.3,20.7C1047.8,283.6,1036.3,286,1023.7,286z
				 M1023.7,234.3c4.8,0,9.3-1.1,13.4-3.3s7.8-5.3,10.9-9.3c3.1-4.1,5.6-9,7.3-14.9c1.7-5.9,2.6-12.5,2.6-19.9
				c0-7.4-0.9-14-2.6-19.9c-1.7-5.9-4.2-10.8-7.3-14.9c-3.1-4.1-6.8-7.2-10.9-9.3s-8.6-3.3-13.4-3.3s-9.3,1.1-13.4,3.3
				s-7.8,5.3-10.9,9.3c-3.1,4.1-5.6,9-7.3,14.9c-1.7,5.9-2.6,12.5-2.6,19.9c0,7.4,0.9,14,2.6,19.9c1.7,5.9,4.2,10.8,7.3,14.9
				c3.1,4.1,6.8,7.2,10.9,9.3S1018.9,234.3,1023.7,234.3z"/>
		</g>
	</g>
	<path class="st1" d="M366.2,546.1h-40.3V333.8h40.3V546.1z M449.3,458.8h-85.9v-40.7h85.9V458.8z M446.7,333.8h40.3v212.3h-40.3
		V333.8z"/>
	<path class="st2" d="M508.9,543.2l78-209.4H627l78.7,209.4h-42.2L598.6,357H615l-64.9,186.1H508.9z M546.7,499.5l10.6-37.8h93.3
		l10.8,37.8H546.7z"/>
	<path class="st2" d="M728.4,543.2V333.8h76.2c15.8,0,29.3,3.1,40.7,9.2c11.4,6.1,20.2,14.9,26.4,26.3c6.2,11.4,9.3,24.9,9.3,40.5
		c0,15.8-3.1,29.4-9.3,40.7c-6.2,11.3-15,19.9-26.4,25.8c-11.4,5.9-25,8.9-40.7,8.9h-54.2l18.3-20.8v78.9H728.4z M768.7,470.2
		l-18.6-23h51.4c12.4,0,21.7-3.2,28.1-9.6c6.4-6.4,9.5-15.4,9.5-26.9c0-11.6-3.2-20.5-9.5-26.8c-6.4-6.3-15.7-9.4-28.1-9.4h-51.4
		l18.6-23V470.2z M840.6,543.2l-43.9-75.6h43.4l43.9,75.6H840.6z"/>
	<path class="st2" d="M1052.2,334c0-0.1,0-0.1,0.1-0.2H916.3v212.3h42.9v-78.5h80.5v-40.7h-80.5v-52.3h65.9
		c6.1-5.7,11.8-15.6,16.2-20.7c1.2-1.4,2.5-2.8,3.7-4.2c0.2-1.3,0.5-2.6,1.1-3.8c0.5-1.6,1.3-3,2.4-4.3
		C1049.1,338.7,1050.3,336,1052.2,334z"/>
	<g>
		<g>
			<g>
				<defs>
					<path id="SVGID_1_" d="M1251.1,14.8c-34.3,58.6-211.3,360.8-210.8,361.5l-0.8,1.7c-0.5,1.1-0.1,2.1,0.8,2.7
						c0.3,0.2,0.5,0.3,0.9,0.3l94.5,1.2c1.2,0,2.1,1.2,2.1,2.4c0,0.2,0,0.2,0,0.3l-39.6,265.9c-0.1,1.2,0.5,2.1,1.6,2.3
						c0.7,0.2,1.5-0.3,1.9-0.9l202.3-327.2c0.1-0.3,0.1-0.6-0.1-0.8c-0.1,0-0.1-0.2-0.3-0.2l-105.2-1.8c-2.3,0-4.2-2-4.2-4.5
						c0-0.3,0-0.6,0.1-0.9l60.4-300.6c0.3-1.2-0.4-2.1-1.5-2.4c-0.1,0-0.3,0-0.4,0C1252.2,13.7,1251.7,14.2,1251.1,14.8"/>
				</defs>
				<clipPath id="SVGID_00000000191239305357336700000014154428501175579529_">
					<use xlink:href="#SVGID_1_"  style="overflow:visible;"/>
				</clipPath>
				<g style="clip-path:url(#SVGID_00000000191239305357336700000014154428501175579529_);">
					
						<linearGradient id="SVGID_00000003816435871216206100000007923657109585580982_" gradientUnits="userSpaceOnUse" x1="1355.1067" y1="730.3798" x2="1356.1935" y2="730.3798" gradientTransform="matrix(-247.36 0 0 -247.36 336503.3125 181000.5156)">
						<stop  offset="0" style="stop-color:#EE3B2C"/>
						<stop  offset="8.000000e-02" style="stop-color:#EE3B2C"/>
						<stop  offset="0.34" style="stop-color:#EF4E2D"/>
						<stop  offset="1" style="stop-color:#F37C5D"/>
					</linearGradient>
					<path style="fill:url(#SVGID_00000003816435871216206100000007923657109585580982_);" d="M1038.9,13.7v311.8
						c2.3,4.1,3,9.5,0.8,14.9c-0.3,0.7-0.6,1.3-0.8,2v1.7c6,3.9,8.6,13.2,4.7,19.8c-1.5,2.6-3.1,5-4.7,7.5v282.5h265.3V13.7H1038.9z
						"/>
				</g>
			</g>
		</g>
	</g>
	<g>
		<defs>
			<path id="SVGID_00000133502143089013477080000013110542113471855756_" d="M316.8,576.6c-1.3,0-2.6,1.3-2.6,2.6v18
				c0,1.5,1.1,2.6,2.6,2.6l0,0h732.9c1.3,0,2.6-1.3,2.6-2.6l0,0v-18c0-1.5-1.1-2.6-2.6-2.6L316.8,576.6L316.8,576.6z"/>
		</defs>
		<clipPath id="SVGID_00000075873709785027580970000000133447578389589926_">
			<use xlink:href="#SVGID_00000133502143089013477080000013110542113471855756_"  style="overflow:visible;"/>
		</clipPath>
		<g style="clip-path:url(#SVGID_00000075873709785027580970000000133447578389589926_);">
			
				<linearGradient id="SVGID_00000152979927405543310820000016930453660792560523_" gradientUnits="userSpaceOnUse" x1="1348.0271" y1="734.0115" x2="1349.1019" y2="734.0115" gradientTransform="matrix(680.98 0 0 680.98 -917663.4375 -499258.875)">
				<stop  offset="0" style="stop-color:#E3674B"/>
				<stop  offset="0.98" style="stop-color:#ED372D"/>
				<stop  offset="1" style="stop-color:#ED372D"/>
			</linearGradient>
			
				<rect x="314.2" y="576.6" style="fill:url(#SVGID_00000152979927405543310820000016930453660792560523_);stroke:#FFFFFF;stroke-width:2.7936;stroke-miterlimit:10;" width="738" height="23.3"/>
		</g>
		
			<use xlink:href="#SVGID_00000133502143089013477080000013110542113471855756_"  style="overflow:visible;fill:none;stroke:#FFFFFF;stroke-width:2.7936;stroke-miterlimit:10;"/>
	</g>
</g>
</svg>
